<svg width="48" height="41" viewBox="0 0 48 41" fill="none" xmlns="http://www.w3.org/2000/svg">
<path d="M28 24.94C27.994 23.8079 28.1454 22.6804 28.45 21.59C28.7366 20.5757 29.1894 19.6161 29.79 18.75C30.2587 18.0243 30.8971 17.4237 31.65 17L32 18.08C31.227 18.7465 30.6498 19.6107 30.33 20.58C29.8809 21.8111 29.6442 23.1096 29.63 24.42V25.08C29.6082 26.4822 29.8211 27.8781 30.26 29.21C30.5689 30.2839 31.1715 31.2502 32 32L31.65 33C30.8935 32.5732 30.2518 31.9693 29.78 31.24C29.1826 30.3735 28.7331 29.4137 28.45 28.4C28.1396 27.2732 27.9882 26.1087 28 24.94ZM44 24.94C44.006 23.8079 43.8546 22.6804 43.55 21.59C43.2634 20.5757 42.8106 19.6161 42.21 18.75C41.7413 18.0243 41.1029 17.4237 40.35 17L40 18.08C40.773 18.7465 41.3502 19.6107 41.67 20.58C42.1191 21.8111 42.3558 23.1096 42.37 24.42V25.08C42.3918 26.4822 42.1789 27.8781 41.74 29.21C41.4311 30.2839 40.8285 31.2502 40 32L40.35 33C41.1065 32.5732 41.7482 31.9693 42.22 31.24C42.8174 30.3735 43.2669 29.4137 43.55 28.4C43.8604 27.2732 44.0118 26.1087 44 24.94ZM23 32.5V27.5H22.91L21 28.26V29.14L21.99 28.8V32.5H23ZM25.5 28.5C25.4221 28.4956 25.3446 28.5141 25.2771 28.5532C25.2096 28.5923 25.155 28.6503 25.12 28.72C25.0373 28.9335 24.9965 29.161 25 29.39V30.69C24.9969 30.8898 25.0379 31.0878 25.12 31.27C25.1566 31.3391 25.2113 31.3968 25.2782 31.4372C25.3452 31.4775 25.4219 31.4988 25.5 31.4988C25.5781 31.4988 25.6548 31.4775 25.7218 31.4372C25.7887 31.3968 25.8434 31.3391 25.88 31.27C25.974 31.0492 26.0151 30.8095 26 30.57V29.3C26.0011 29.1068 25.9602 28.9157 25.88 28.74C25.848 28.6665 25.7946 28.6044 25.7269 28.5616C25.6591 28.5188 25.5801 28.4973 25.5 28.5ZM25.5 27.5C25.7153 27.491 25.9294 27.5356 26.1232 27.6299C26.3169 27.7241 26.4842 27.8651 26.61 28.04C26.8965 28.4931 27.033 29.0249 27 29.56V30.66C27.0027 31.135 26.8672 31.6006 26.61 32C26.477 32.1667 26.3081 32.3013 26.116 32.3938C25.9238 32.4864 25.7133 32.5344 25.5 32.5344C25.2867 32.5344 25.0762 32.4864 24.884 32.3938C24.6919 32.3013 24.523 32.1667 24.39 32C24.0952 31.5357 23.9584 30.9885 24 30.44V29.34C23.9973 28.865 24.1328 28.3994 24.39 28C24.5202 27.8324 24.6894 27.6992 24.8829 27.612C25.0763 27.5249 25.2882 27.4864 25.5 27.5ZM6.71 29.11H5V20.5H6.71V29.11ZM7.6 26C7.60556 25.4458 7.74266 24.9009 8 24.41C8.22492 23.9604 8.57136 23.5827 9 23.32C9.48688 23.0535 10.035 22.919 10.59 22.93C10.9735 22.9055 11.358 22.9596 11.7198 23.089C12.0817 23.2184 12.4132 23.4205 12.6942 23.6827C12.9751 23.9449 13.1995 24.2617 13.3535 24.6138C13.5076 24.9659 13.5881 25.3457 13.59 25.73V26.14C13.608 26.549 13.5448 26.9576 13.4041 27.342C13.2633 27.7265 13.0478 28.0793 12.77 28.38C12.4825 28.6633 12.1396 28.8842 11.7627 29.0287C11.3859 29.1733 10.9832 29.2384 10.58 29.22C10.1752 29.2392 9.77081 29.1744 9.39222 29.0299C9.01363 28.8853 8.66901 28.6641 8.38 28.38C8.10485 28.071 7.89413 27.7101 7.7602 27.3186C7.62626 26.9271 7.5718 26.5128 7.6 26.1V26ZM9.3 26.12C9.26932 26.585 9.38849 27.0477 9.64 27.44C9.7543 27.5949 9.90595 27.7183 10.0808 27.7987C10.2557 27.8791 10.448 27.914 10.64 27.9C10.8311 27.9151 11.0229 27.8818 11.1977 27.8031C11.3724 27.7245 11.5246 27.603 11.64 27.45C11.8843 27.0083 11.9856 26.5017 11.93 26C11.9577 25.537 11.8349 25.0775 11.58 24.69C11.4656 24.5347 11.3142 24.4104 11.1396 24.3283C10.9649 24.2462 10.7726 24.209 10.58 24.22C10.3878 24.2041 10.1948 24.2381 10.0196 24.3187C9.8444 24.3993 9.69298 24.5237 9.58 24.68C9.33644 25.1255 9.23852 25.636 9.3 26.14V26.12ZM14.18 26C14.1427 25.1943 14.3905 24.4011 14.88 23.76C15.105 23.4805 15.3921 23.2572 15.7184 23.1079C16.0448 22.9587 16.4014 22.8875 16.76 22.9C17.0664 22.8822 17.3728 22.9352 17.6555 23.0549C17.9381 23.1745 18.1895 23.3576 18.39 23.59L18.46 23.02H20V28.88C20.0105 29.3672 19.8785 29.8469 19.62 30.26C19.3649 30.6633 18.9911 30.9777 18.55 31.16C18.0421 31.3786 17.4928 31.4844 16.94 31.47C16.4734 31.4695 16.0114 31.3778 15.58 31.2C15.1941 31.0624 14.8498 30.8283 14.58 30.52L15.34 29.52C15.5318 29.7385 15.769 29.9125 16.035 30.0299C16.3009 30.1474 16.5893 30.2054 16.88 30.2C17.2618 30.2214 17.6374 30.0962 17.93 29.85C18.0622 29.7213 18.164 29.5648 18.228 29.3918C18.292 29.2188 18.3166 29.0337 18.3 28.85V28.52C18.1036 28.7294 17.8644 28.894 17.5986 29.0027C17.3329 29.1115 17.0469 29.1617 16.76 29.15C16.4054 29.1614 16.053 29.0906 15.7303 28.9431C15.4077 28.7956 15.1235 28.5755 14.9 28.3C14.4025 27.651 14.151 26.8468 14.19 26.03L14.18 26ZM15.88 26.12C15.8552 26.5796 15.9778 27.035 16.23 27.42C16.3379 27.57 16.4809 27.6914 16.6465 27.7733C16.8121 27.8552 16.9953 27.8953 17.18 27.89C17.3987 27.9081 17.6181 27.8653 17.8139 27.7665C18.0098 27.6677 18.1746 27.5166 18.29 27.33V24.81C18.177 24.6258 18.0156 24.4762 17.8234 24.3774C17.6312 24.2787 17.4155 24.2346 17.2 24.25C17.0064 24.2392 16.8131 24.2775 16.6383 24.3615C16.4635 24.4454 16.3127 24.5722 16.2 24.73C15.9501 25.1593 15.8384 25.655 15.88 26.15V26.12Z" fill="white"/>
<path d="M38 23V27H34V23H38ZM40 21H32V29H40V21Z" fill="white"/>
</svg>
