<svg width="48" height="48" viewBox="0 0 48 48" fill="none" xmlns="http://www.w3.org/2000/svg">
<path d="M11.56 26.52C11.8619 26.5336 12.158 26.4337 12.39 26.24C12.4936 26.1465 12.5765 26.0324 12.6333 25.9049C12.6901 25.7775 12.7197 25.6396 12.72 25.5H14.44C14.437 25.9541 14.3052 26.3979 14.06 26.78C13.8152 27.1658 13.4693 27.477 13.06 27.68C12.6126 27.9006 12.1187 28.0104 11.62 28C11.1892 28.0209 10.7589 27.9486 10.3585 27.7881C9.95817 27.6277 9.59712 27.3827 9.3 27.07C8.69828 26.3458 8.39441 25.4199 8.45 24.48V24.36C8.402 23.4411 8.70191 22.5378 9.29 21.83C9.58531 21.5137 9.94556 21.2651 10.346 21.1011C10.7465 20.9371 11.1777 20.8617 11.61 20.88C12.3692 20.8417 13.1129 21.1039 13.68 21.61C13.9403 21.8621 14.145 22.1657 14.2811 22.5016C14.4171 22.8374 14.4815 23.1979 14.47 23.56H12.72C12.7211 23.2392 12.6036 22.9294 12.39 22.69C12.2805 22.5798 12.1493 22.4935 12.0047 22.4367C11.8601 22.3799 11.7052 22.3538 11.55 22.36C11.3566 22.3421 11.1619 22.3763 10.986 22.4589C10.8102 22.5416 10.6597 22.6697 10.55 22.83C10.293 23.2896 10.1781 23.8151 10.22 24.34V24.53C10.1771 25.0614 10.2919 25.5936 10.55 26.06C10.6625 26.2194 10.8153 26.3459 10.9927 26.4267C11.1702 26.5076 11.366 26.5398 11.56 26.52ZM15.2 24.38C15.1884 23.7515 15.3219 23.1287 15.59 22.56C15.8332 22.0423 16.2271 21.6101 16.72 21.32C17.2435 21.0218 17.8376 20.8698 18.44 20.88C18.8559 20.8631 19.2711 20.9296 19.6609 21.0756C20.0508 21.2216 20.4075 21.4441 20.71 21.73C21.3249 22.3449 21.6825 23.1709 21.71 24.04V24.51C21.7518 25.4398 21.433 26.3497 20.82 27.05C20.5174 27.3679 20.1501 27.6171 19.743 27.781C19.3359 27.9449 18.8984 28.0196 18.46 28C18.0185 28.0205 17.5777 27.9463 17.1672 27.7825C16.7568 27.6186 16.3861 27.3689 16.08 27.05C15.462 26.3334 15.1465 25.4048 15.2 24.46V24.38ZM17.03 24.51C16.9993 25.0327 17.1283 25.5524 17.4 26C17.5243 26.16 17.6836 26.2894 17.8655 26.3784C18.0475 26.4674 18.2474 26.5137 18.45 26.5137C18.6526 26.5137 18.8525 26.4674 19.0345 26.3784C19.2164 26.2894 19.3757 26.16 19.5 26C19.7872 25.5037 19.9163 24.9316 19.87 24.36C19.9032 23.8403 19.7739 23.323 19.5 22.88C19.3836 22.7082 19.225 22.5692 19.0393 22.4764C18.8537 22.3836 18.6473 22.34 18.44 22.35C18.2433 22.3473 18.049 22.3934 17.8745 22.4841C17.7 22.5749 17.5507 22.7075 17.44 22.87C17.1336 23.3608 16.9804 23.9318 17 24.51H17.03ZM26.55 26C26.5501 25.8897 26.5192 25.7815 26.4609 25.6878C26.4025 25.5941 26.3191 25.5187 26.22 25.47C25.8834 25.2992 25.5225 25.1811 25.15 25.12C23.52 24.78 22.7 24.12 22.7 23.04C22.6969 22.7431 22.7641 22.4497 22.8962 22.1837C23.0283 21.9178 23.2215 21.6869 23.46 21.51C24.0344 21.0782 24.7424 20.8622 25.46 20.9C26.2105 20.8584 26.9524 21.0774 27.56 21.52C27.8083 21.7051 28.0086 21.9469 28.1443 22.2253C28.28 22.5036 28.3471 22.8104 28.34 23.12H26.48C26.4844 22.9989 26.4645 22.8781 26.4216 22.7648C26.3787 22.6515 26.3135 22.5478 26.23 22.46C26.1216 22.3679 25.9958 22.2984 25.8602 22.2555C25.7245 22.2125 25.5817 22.1971 25.44 22.21C25.1828 22.1935 24.928 22.2678 24.72 22.42C24.6391 22.4821 24.5743 22.5625 24.5308 22.6547C24.4873 22.7469 24.4665 22.8482 24.47 22.95C24.4691 23.0492 24.4946 23.1468 24.5438 23.2329C24.593 23.319 24.6641 23.3905 24.75 23.44C25.0623 23.6057 25.4004 23.7173 25.75 23.77C26.1401 23.842 26.5245 23.9423 26.9 24.07C27.3152 24.1707 27.6847 24.4076 27.9493 24.743C28.214 25.0784 28.3586 25.4928 28.36 25.92C28.3637 26.2211 28.2914 26.5182 28.1498 26.7839C28.0083 27.0495 27.8019 27.2752 27.55 27.44C26.9363 27.8503 26.2075 28.0535 25.47 28.02C24.9432 28.0329 24.4203 27.9269 23.94 27.71C23.5188 27.533 23.1552 27.2421 22.89 26.87C22.6405 26.535 22.5071 26.1277 22.51 25.71H24.24C24.2439 25.8543 24.279 25.9961 24.3428 26.1256C24.4067 26.255 24.4979 26.3691 24.61 26.46C24.8726 26.6446 25.1894 26.7361 25.51 26.72C25.7878 26.7377 26.0641 26.6677 26.3 26.52C26.3807 26.4601 26.4456 26.3815 26.4892 26.2909C26.5327 26.2003 26.5536 26.1005 26.55 26Z" fill="white"/>
<path d="M38 22V26H34V22H38ZM40 20H32V28H40V20Z" fill="white"/>
</svg>
