<svg width="48" height="48" viewBox="0 0 48 48" fill="none" xmlns="http://www.w3.org/2000/svg">
<path d="M29 19H27V18H29V19ZM31.87 20.43H30.73V16.84L29.37 17.28V16.28L31.74 15.39H31.87V20.43ZM10.56 26.52C10.8619 26.5336 11.158 26.4337 11.39 26.24C11.4936 26.1465 11.5765 26.0324 11.6333 25.9049C11.6901 25.7775 11.7197 25.6396 11.72 25.5H13.44C13.437 25.954 13.3052 26.3979 13.06 26.78C12.8152 27.1658 12.4693 27.477 12.06 27.68C11.6126 27.9006 11.1187 28.0104 10.62 28C10.1892 28.0209 9.7589 27.9486 9.35853 27.7881C8.95817 27.6276 8.59712 27.3827 8.3 27.07C7.69828 26.3458 7.39441 25.4199 7.45 24.48V24.36C7.402 23.4411 7.70191 22.5378 8.29 21.83C8.58531 21.5137 8.94555 21.265 9.34601 21.1011C9.74647 20.9371 10.1777 20.8617 10.61 20.88C11.3692 20.8417 12.1129 21.1039 12.68 21.61C12.9403 21.8621 13.145 22.1657 13.2811 22.5015C13.4171 22.8373 13.4815 23.1979 13.47 23.56H11.72C11.7211 23.2392 11.6036 22.9294 11.39 22.69C11.2805 22.5798 11.1493 22.4935 11.0047 22.4367C10.8601 22.3798 10.7052 22.3537 10.55 22.36C10.3566 22.3421 10.1618 22.3763 9.98603 22.4589C9.81021 22.5415 9.65968 22.6697 9.55 22.83C9.29297 23.2896 9.17812 23.8151 9.22 24.34V24.53C9.17712 25.0614 9.29191 25.5936 9.55 26.06C9.66246 26.2193 9.81526 26.3459 9.99273 26.4267C10.1702 26.5076 10.366 26.5398 10.56 26.52ZM14.2 24.38C14.1884 23.7514 14.3218 23.1286 14.59 22.56C14.8332 22.0423 15.2271 21.6101 15.72 21.32C16.2435 21.0218 16.8376 20.8698 17.44 20.88C17.8559 20.8631 18.2711 20.9296 18.6609 21.0756C19.0508 21.2215 19.4075 21.4441 19.71 21.73C20.3249 22.3449 20.6825 23.1709 20.71 24.04V24.51C20.7518 25.4398 20.433 26.3497 19.82 27.05C19.5174 27.3678 19.1501 27.6171 18.743 27.781C18.3359 27.9449 17.8984 28.0195 17.46 28C17.0185 28.0205 16.5777 27.9463 16.1672 27.7825C15.7568 27.6186 15.3861 27.3689 15.08 27.05C14.462 26.3334 14.1465 25.4048 14.2 24.46V24.38ZM16.03 24.51C15.9993 25.0327 16.1283 25.5524 16.4 26C16.5243 26.1599 16.6836 26.2894 16.8655 26.3784C17.0475 26.4674 17.2474 26.5137 17.45 26.5137C17.6526 26.5137 17.8525 26.4674 18.0345 26.3784C18.2164 26.2894 18.3757 26.1599 18.5 26C18.7872 25.5037 18.9163 24.9316 18.87 24.36C18.9032 23.8402 18.7739 23.323 18.5 22.88C18.3836 22.7082 18.225 22.5692 18.0393 22.4764C17.8537 22.3835 17.6473 22.34 17.44 22.35C17.2433 22.3473 17.049 22.3934 16.8745 22.4841C16.7 22.5749 16.5507 22.7074 16.44 22.87C16.1336 23.3608 15.9804 23.9318 16 24.51H16.03ZM25.55 26C25.5501 25.8896 25.5192 25.7815 25.4608 25.6878C25.4025 25.5941 25.3191 25.5186 25.22 25.47C24.8834 25.2992 24.5225 25.1811 24.15 25.12C22.52 24.78 21.7 24.12 21.7 23.04C21.6968 22.7431 21.7641 22.4496 21.8962 22.1837C22.0283 21.9178 22.2215 21.6869 22.46 21.51C23.0344 21.0781 23.7424 20.8622 24.46 20.9C25.2105 20.8584 25.9524 21.0774 26.56 21.52C26.8083 21.7051 27.0086 21.9469 27.1443 22.2253C27.28 22.5036 27.3471 22.8104 27.34 23.12H25.48C25.4844 22.9989 25.4645 22.8781 25.4216 22.7648C25.3787 22.6515 25.3135 22.5478 25.23 22.46C25.1216 22.3679 24.9958 22.2984 24.8602 22.2554C24.7245 22.2125 24.5817 22.1971 24.44 22.21C24.1828 22.1935 23.928 22.2678 23.72 22.42C23.6391 22.4821 23.5743 22.5625 23.5308 22.6547C23.4873 22.7469 23.4665 22.8481 23.47 22.95C23.4691 23.0492 23.4946 23.1468 23.5438 23.2329C23.593 23.319 23.6641 23.3904 23.75 23.44C24.0623 23.6057 24.4004 23.7173 24.75 23.77C25.1401 23.842 25.5244 23.9423 25.9 24.07C26.3152 24.1707 26.6847 24.4076 26.9493 24.743C27.214 25.0784 27.3586 25.4928 27.36 25.92C27.3637 26.221 27.2914 26.5182 27.1498 26.7838C27.0083 27.0495 26.8019 27.2752 26.55 27.44C25.9363 27.8503 25.2075 28.0535 24.47 28.02C23.9432 28.0328 23.4203 27.9269 22.94 27.71C22.5188 27.533 22.1552 27.2421 21.89 26.87C21.6405 26.535 21.5071 26.1277 21.51 25.71H23.24C23.2439 25.8543 23.279 25.9961 23.3428 26.1256C23.4067 26.255 23.4978 26.3691 23.61 26.46C23.8726 26.6446 24.1894 26.7361 24.51 26.72C24.7878 26.7377 25.0641 26.6677 25.3 26.52C25.3807 26.4601 25.4456 26.3815 25.4892 26.2909C25.5327 26.2003 25.5536 26.1005 25.55 26Z" fill="white"/>
<path d="M40 22V26H36V22H40ZM42 20H34V28H42V20Z" fill="white"/>
</svg>
