<svg width="48" height="48" viewBox="0 0 48 48" fill="none" xmlns="http://www.w3.org/2000/svg">
<path d="M32 19H30V18H32V19ZM34.87 20.43H33.73V16.84L32.37 17.28V16.28L34.74 15.39H34.87V20.43ZM7.56 26.52C7.86193 26.5336 8.15802 26.4337 8.39001 26.24C8.4936 26.1465 8.57648 26.0324 8.63331 25.9049C8.69014 25.7775 8.71968 25.6396 8.72001 25.5H10.44C10.437 25.954 10.3052 26.3979 10.06 26.78C9.81517 27.1658 9.46931 27.477 9.06001 27.68C8.60358 27.9054 8.09881 28.0153 7.59 28C7.15917 28.0209 6.72891 27.9486 6.32854 27.7881C5.92817 27.6276 5.56712 27.3827 5.27 27.07C4.66828 26.3458 4.36442 25.4199 4.42 24.48V24.36C4.372 23.4411 4.67191 22.5378 5.26 21.83C5.55531 21.5137 5.91556 21.265 6.31601 21.1011C6.71647 20.9371 7.14766 20.8617 7.58 20.88C8.33916 20.8417 9.08286 21.1039 9.65 21.61C9.91029 21.8621 10.115 22.1657 10.2511 22.5015C10.3871 22.8373 10.4515 23.1979 10.44 23.56H8.72001C8.72111 23.2392 8.60358 22.9294 8.39001 22.69C8.28054 22.5798 8.14933 22.4935 8.00471 22.4367C7.8601 22.3798 7.70525 22.3537 7.55 22.36C7.35656 22.3421 7.16185 22.3763 6.98604 22.4589C6.81022 22.5415 6.65968 22.6697 6.55 22.83C6.29297 23.2896 6.17812 23.8151 6.22 24.34V24.53C6.17713 25.0614 6.29192 25.5936 6.55 26.06C6.66247 26.2193 6.81526 26.3459 6.99274 26.4267C7.17022 26.5076 7.36599 26.5398 7.56 26.52ZM11.2 24.38C11.1884 23.7514 11.3219 23.1286 11.59 22.56C11.8332 22.0423 12.2271 21.6101 12.72 21.32C13.2435 21.0218 13.8376 20.8698 14.44 20.88C14.8559 20.8631 15.2711 20.9296 15.6609 21.0756C16.0508 21.2215 16.4075 21.4441 16.71 21.73C17.3249 22.3449 17.6825 23.1709 17.71 24.04V24.51C17.7518 25.4398 17.433 26.3497 16.82 27.05C16.5174 27.3678 16.1501 27.6171 15.743 27.781C15.3359 27.9449 14.8984 28.0195 14.46 28C14.0185 28.0205 13.5777 27.9463 13.1672 27.7825C12.7568 27.6186 12.3861 27.3689 12.08 27.05C11.462 26.3334 11.1465 25.4048 11.2 24.46V24.38ZM13.03 24.51C12.9993 25.0327 13.1283 25.5524 13.4 26C13.5243 26.1599 13.6836 26.2894 13.8655 26.3784C14.0475 26.4674 14.2474 26.5137 14.45 26.5137C14.6526 26.5137 14.8525 26.4674 15.0345 26.3784C15.2164 26.2894 15.3757 26.1599 15.5 26C15.7872 25.5037 15.9163 24.9316 15.87 24.36C15.9032 23.8402 15.7739 23.323 15.5 22.88C15.3836 22.7082 15.225 22.5692 15.0393 22.4764C14.8537 22.3835 14.6473 22.34 14.44 22.35C14.2433 22.3473 14.049 22.3934 13.8745 22.4841C13.7 22.5749 13.5507 22.7074 13.44 22.87C13.1336 23.3608 12.9804 23.9318 13 24.51H13.03ZM22.55 26C22.5501 25.8896 22.5192 25.7815 22.4609 25.6878C22.4025 25.5941 22.3191 25.5186 22.22 25.47C21.8834 25.2992 21.5225 25.1811 21.15 25.12C19.52 24.78 18.7 24.12 18.7 23.04C18.6969 22.7431 18.7641 22.4496 18.8962 22.1837C19.0283 21.9178 19.2215 21.6869 19.46 21.51C20.0344 21.0781 20.7424 20.8622 21.46 20.9C22.2105 20.8584 22.9524 21.0774 23.56 21.52C23.8083 21.7051 24.0086 21.9469 24.1443 22.2253C24.28 22.5036 24.3471 22.8104 24.34 23.12H22.48C22.4844 22.9989 22.4645 22.8781 22.4216 22.7648C22.3787 22.6515 22.3135 22.5478 22.23 22.46C22.1216 22.3679 21.9958 22.2984 21.8602 22.2554C21.7245 22.2125 21.5817 22.1971 21.44 22.21C21.1828 22.1935 20.928 22.2678 20.72 22.42C20.6391 22.4821 20.5743 22.5625 20.5308 22.6547C20.4873 22.7469 20.4665 22.8481 20.47 22.95C20.4691 23.0492 20.4946 23.1468 20.5438 23.2329C20.593 23.319 20.6641 23.3904 20.75 23.44C21.0623 23.6057 21.4004 23.7173 21.75 23.77C22.1401 23.842 22.5245 23.9423 22.9 24.07C23.3152 24.1707 23.6847 24.4076 23.9493 24.743C24.214 25.0784 24.3586 25.4928 24.36 25.92C24.3637 26.221 24.2914 26.5182 24.1498 26.7838C24.0083 27.0495 23.8019 27.2752 23.55 27.44C22.9363 27.8503 22.2075 28.0535 21.47 28.02C20.9432 28.0328 20.4203 27.9269 19.94 27.71C19.5188 27.533 19.1552 27.2421 18.89 26.87C18.6405 26.535 18.5071 26.1277 18.51 25.71H20.24C20.2439 25.8543 20.279 25.9961 20.3428 26.1256C20.4067 26.255 20.4979 26.3691 20.61 26.46C20.8726 26.6446 21.1894 26.7361 21.51 26.72C21.7878 26.7377 22.0641 26.6677 22.3 26.52C22.3807 26.4601 22.4456 26.3815 22.4892 26.2909C22.5327 26.2003 22.5536 26.1005 22.55 26ZM27.31 21.76C27.5263 21.4819 27.8041 21.2577 28.1216 21.105C28.4391 20.9524 28.7877 20.8753 29.14 20.88C30.63 20.88 31.39 21.75 31.41 23.48V27.88H29.58V23.53C29.6051 23.2146 29.5124 22.9011 29.32 22.65C29.2064 22.5487 29.0733 22.4716 28.9288 22.4235C28.7844 22.3753 28.6317 22.3571 28.48 22.37C28.2467 22.3546 28.0136 22.4044 27.807 22.5139C27.6004 22.6234 27.4283 22.7883 27.31 22.99V27.88H25.47V18.12H27.31V21.76Z" fill="white"/>
<path d="M42 22V26H38V22H42ZM44 20H36V28H44V20Z" fill="white"/>
</svg>
