<svg width="48" height="48" viewBox="0 0 48 48" fill="none" xmlns="http://www.w3.org/2000/svg">
<path d="M8.55999 26.52C8.86192 26.5336 9.158 26.4337 9.38999 26.24C9.49358 26.1465 9.57646 26.0324 9.63329 25.9049C9.69013 25.7775 9.71966 25.6395 9.71999 25.5H11.44C11.4369 25.954 11.3052 26.3979 11.06 26.78C10.8152 27.1657 10.4693 27.477 10.06 27.68C9.60356 27.9054 9.09879 28.0152 8.58999 28C8.15916 28.0209 7.72889 27.9486 7.32852 27.7881C6.92816 27.6276 6.56711 27.3827 6.26999 27.07C5.66826 26.3458 5.3644 25.4199 5.41999 24.48V24.36C5.37199 23.4411 5.6719 22.5377 6.25999 21.83C6.5553 21.5137 6.91554 21.265 7.316 21.101C7.71646 20.9371 8.14765 20.8617 8.57999 20.88C9.33914 20.8416 10.0828 21.1039 10.65 21.61C10.9103 21.862 11.115 22.1657 11.251 22.5015C11.3871 22.8373 11.4514 23.1979 11.44 23.56H9.71999C9.7211 23.2392 9.60356 22.9293 9.38999 22.69C9.28052 22.5797 9.14931 22.4935 9.0047 22.4366C8.86009 22.3798 8.70524 22.3537 8.54999 22.36C8.35655 22.3421 8.16184 22.3763 7.98602 22.4589C7.8102 22.5415 7.65967 22.6696 7.54999 22.83C7.29296 23.2896 7.17811 23.8151 7.21999 24.34V24.53C7.17711 25.0614 7.2919 25.5936 7.54999 26.06C7.66245 26.2193 7.81525 26.3459 7.99272 26.4267C8.1702 26.5075 8.36598 26.5397 8.55999 26.52ZM12.2 24.38C12.1884 23.7514 12.3218 23.1286 12.59 22.56C12.8332 22.0423 13.227 21.6101 13.72 21.32C14.2435 21.0218 14.8376 20.8698 15.44 20.88C15.8559 20.8631 16.2711 20.9296 16.6609 21.0755C17.0508 21.2215 17.4075 21.444 17.71 21.73C18.3249 22.3449 18.6824 23.1709 18.71 24.04V24.51C18.7518 25.4397 18.433 26.3497 17.82 27.05C17.5174 27.3678 17.1501 27.6171 16.743 27.781C16.3359 27.9448 15.8984 28.0195 15.46 28C15.0185 28.0205 14.5777 27.9463 14.1672 27.7824C13.7567 27.6186 13.386 27.3689 13.08 27.05C12.462 26.3334 12.1465 25.4048 12.2 24.46V24.38ZM14.03 24.51C13.9993 25.0327 14.1283 25.5524 14.4 26C14.5243 26.1599 14.6836 26.2893 14.8655 26.3784C15.0475 26.4674 15.2474 26.5137 15.45 26.5137C15.6526 26.5137 15.8525 26.4674 16.0344 26.3784C16.2164 26.2893 16.3756 26.1599 16.5 26C16.7872 25.5037 16.9163 24.9316 16.87 24.36C16.9032 23.8402 16.7739 23.323 16.5 22.88C16.3836 22.7082 16.225 22.5692 16.0393 22.4763C15.8537 22.3835 15.6473 22.34 15.44 22.35C15.2433 22.3473 15.049 22.3933 14.8745 22.4841C14.7 22.5748 14.5507 22.7074 14.44 22.87C14.1335 23.3608 13.9804 23.9317 14 24.51H14.03ZM23.55 26C23.5501 25.8896 23.5192 25.7815 23.4608 25.6878C23.4025 25.5941 23.3191 25.5186 23.22 25.47C22.8834 25.2991 22.5225 25.1811 22.15 25.12C20.52 24.78 19.7 24.12 19.7 23.04C19.6968 22.7431 19.7641 22.4496 19.8962 22.1837C20.0283 21.9177 20.2215 21.6869 20.46 21.51C21.0343 21.0781 21.7424 20.8622 22.46 20.9C23.2105 20.8584 23.9524 21.0774 24.56 21.52C24.8083 21.7051 25.0086 21.9469 25.1443 22.2253C25.28 22.5036 25.3471 22.8104 25.34 23.12H23.48C23.4844 22.9989 23.4645 22.8781 23.4216 22.7648C23.3786 22.6514 23.3135 22.5478 23.23 22.46C23.1215 22.3679 22.9958 22.2983 22.8602 22.2554C22.7245 22.2125 22.5817 22.197 22.44 22.21C22.1828 22.1935 21.928 22.2678 21.72 22.42C21.6391 22.482 21.5743 22.5625 21.5308 22.6547C21.4873 22.7469 21.4664 22.8481 21.47 22.95C21.4691 23.0491 21.4946 23.1468 21.5438 23.2328C21.5929 23.3189 21.6641 23.3904 21.75 23.44C22.0623 23.6057 22.4004 23.7173 22.75 23.77C23.1401 23.842 23.5244 23.9422 23.9 24.07C24.3152 24.1706 24.6847 24.4076 24.9493 24.743C25.214 25.0783 25.3586 25.4928 25.36 25.92C25.3637 26.221 25.2914 26.5181 25.1498 26.7838C25.0082 27.0495 24.8019 27.2752 24.55 27.44C23.9363 27.8503 23.2074 28.0535 22.47 28.02C21.9432 28.0328 21.4203 27.9269 20.94 27.71C20.5188 27.5329 20.1552 27.2421 19.89 26.87C19.6405 26.535 19.5071 26.1277 19.51 25.71H21.24C21.2439 25.8543 21.279 25.9961 21.3428 26.1255C21.4067 26.255 21.4978 26.3691 21.61 26.46C21.8726 26.6445 22.1894 26.7361 22.51 26.72C22.7878 26.7376 23.0641 26.6677 23.3 26.52C23.3807 26.4601 23.4456 26.3814 23.4892 26.2908C23.5327 26.2003 23.5536 26.1004 23.55 26ZM28.31 21.76C28.5263 21.4819 28.8041 21.2577 29.1216 21.105C29.4391 20.9523 29.7877 20.8753 30.14 20.88C31.63 20.88 32.39 21.75 32.41 23.48V27.88H30.58V23.53C30.6051 23.2146 30.5124 22.9011 30.32 22.65C30.2064 22.5487 30.0733 22.4716 29.9288 22.4235C29.7844 22.3753 29.6317 22.3571 29.48 22.37C29.2466 22.3546 29.0136 22.4044 28.807 22.5139C28.6003 22.6234 28.4283 22.7883 28.31 22.99V27.88H26.47V18.12H28.31V21.76Z" fill="white"/>
<path d="M41 22V26H37V22H41ZM43 20H35V28H43V20Z" fill="white"/>
</svg>
