<svg width="48" height="48" viewBox="0 0 48 48" fill="none" xmlns="http://www.w3.org/2000/svg">
<path d="M12.56 26.5199C12.8619 26.5335 13.158 26.4337 13.39 26.2399C13.4936 26.1465 13.5765 26.0323 13.6333 25.9049C13.6901 25.7774 13.7197 25.6395 13.72 25.4999H15.44C15.4369 25.954 15.3052 26.3978 15.06 26.7799C14.8152 27.1657 14.4693 27.477 14.06 27.6799C13.6126 27.9006 13.1187 28.0103 12.62 27.9999C12.1892 28.0208 11.7589 27.9486 11.3585 27.7881C10.9582 27.6276 10.5971 27.3826 10.3 27.0699C9.69826 26.3458 9.3944 25.4199 9.44999 24.4799V24.3599C9.40199 23.441 9.7019 22.5377 10.29 21.8299C10.5853 21.5136 10.9455 21.265 11.346 21.101C11.7465 20.937 12.1776 20.8616 12.61 20.8799C13.3691 20.8416 14.1128 21.1039 14.68 21.6099C14.9403 21.862 15.145 22.1657 15.281 22.5015C15.4171 22.8373 15.4814 23.1978 15.47 23.5599H13.72C13.7211 23.2392 13.6036 22.9293 13.39 22.6899C13.2805 22.5797 13.1493 22.4934 13.0047 22.4366C12.8601 22.3798 12.7052 22.3537 12.55 22.3599C12.3565 22.3421 12.1618 22.3762 11.986 22.4588C11.8102 22.5415 11.6597 22.6696 11.55 22.8299C11.293 23.2895 11.1781 23.815 11.22 24.3399V24.5299C11.1771 25.0613 11.2919 25.5935 11.55 26.0599C11.6625 26.2193 11.8152 26.3458 11.9927 26.4267C12.1702 26.5075 12.366 26.5397 12.56 26.5199ZM16.2 24.3799C16.1884 23.7514 16.3218 23.1286 16.59 22.5599C16.8332 22.0423 17.227 21.6101 17.72 21.3199C18.2435 21.0217 18.8376 20.8697 19.44 20.8799C19.8559 20.863 20.2711 20.9295 20.6609 21.0755C21.0508 21.2215 21.4075 21.444 21.71 21.7299C22.3249 22.3448 22.6824 23.1708 22.71 24.0399V24.5099C22.7518 25.4397 22.433 26.3497 21.82 27.0499C21.5174 27.3678 21.1501 27.617 20.743 27.7809C20.3359 27.9448 19.8984 28.0195 19.46 27.9999C19.0185 28.0204 18.5777 27.9462 18.1672 27.7824C17.7567 27.6185 17.386 27.3688 17.08 27.0499C16.462 26.3333 16.1465 25.4047 16.2 24.4599V24.3799ZM18.03 24.5099C17.9993 25.0327 18.1283 25.5523 18.4 25.9999C18.5243 26.1599 18.6836 26.2893 18.8655 26.3783C19.0475 26.4673 19.2474 26.5136 19.45 26.5136C19.6526 26.5136 19.8525 26.4673 20.0344 26.3783C20.2164 26.2893 20.3756 26.1599 20.5 25.9999C20.7872 25.5036 20.9163 24.9315 20.87 24.3599C20.9032 23.8402 20.7739 23.3229 20.5 22.8799C20.3836 22.7081 20.225 22.5691 20.0393 22.4763C19.8537 22.3835 19.6473 22.34 19.44 22.3499C19.2433 22.3472 19.049 22.3933 18.8745 22.484C18.7 22.5748 18.5507 22.7074 18.44 22.8699C18.1335 23.3607 17.9804 23.9317 18 24.5099H18.03ZM26 19.3199V20.9999H27.18V22.3399H26V25.7699C25.9826 25.9653 26.0358 26.1605 26.15 26.3199C26.227 26.3841 26.3167 26.4315 26.4131 26.4591C26.5095 26.4866 26.6106 26.4938 26.71 26.4799C26.8863 26.4968 27.0637 26.4968 27.24 26.4799V27.8699C26.8802 27.9789 26.5059 28.0329 26.13 28.0299C25.8623 28.0708 25.5889 28.0489 25.3311 27.9662C25.0733 27.8834 24.8383 27.742 24.6444 27.553C24.4506 27.364 24.3032 27.1326 24.214 26.877C24.1247 26.6214 24.096 26.3485 24.13 26.0799V22.3799H23.13V20.9999H24.13V19.3199H26Z" fill="white"/>
<path d="M36 22V26H32V22H36ZM38 20H30V28H38V20Z" fill="white"/>
</svg>
