<svg width="48" height="48" viewBox="0 0 48 48" fill="none" xmlns="http://www.w3.org/2000/svg">
<path d="M31 19H29V18H31V19ZM33.87 20.43H32.73V16.84L31.37 17.28V16.28L33.74 15.39H33.87V20.43ZM7.56 26.52C7.86193 26.5336 8.15801 26.4337 8.39 26.24C8.49359 26.1465 8.57647 26.0324 8.6333 25.9049C8.69014 25.7775 8.71967 25.6396 8.72 25.5H10.44C10.437 25.954 10.3052 26.3979 10.06 26.78C9.81517 27.1658 9.46931 27.477 9.06 27.68C8.60357 27.9054 8.0988 28.0153 7.59 28C7.15917 28.0209 6.7289 27.9486 6.32853 27.7881C5.92817 27.6276 5.56712 27.3827 5.27 27.07C4.66827 26.3458 4.36441 25.4199 4.42 24.48V24.36C4.372 23.4411 4.67191 22.5378 5.26 21.83C5.55531 21.5137 5.91555 21.265 6.31601 21.1011C6.71647 20.9371 7.14766 20.8617 7.58 20.88C8.33915 20.8417 9.08285 21.1039 9.65 21.61C9.91028 21.8621 10.115 22.1657 10.2511 22.5015C10.3871 22.8373 10.4515 23.1979 10.44 23.56H8.72C8.72111 23.2392 8.60357 22.9294 8.39 22.69C8.28053 22.5798 8.14932 22.4935 8.00471 22.4367C7.8601 22.3798 7.70525 22.3537 7.55 22.36C7.35656 22.3421 7.16185 22.3763 6.98603 22.4589C6.81021 22.5415 6.65968 22.6697 6.55 22.83C6.29297 23.2896 6.17812 23.8151 6.22 24.34V24.53C6.17712 25.0614 6.29191 25.5936 6.55 26.06C6.66246 26.2193 6.81526 26.3459 6.99273 26.4267C7.17021 26.5076 7.36599 26.5398 7.56 26.52ZM11.2 24.38C11.1884 23.7514 11.3218 23.1286 11.59 22.56C11.8332 22.0423 12.2271 21.6101 12.72 21.32C13.2435 21.0218 13.8376 20.8698 14.44 20.88C14.8559 20.8631 15.2711 20.9296 15.6609 21.0756C16.0508 21.2215 16.4075 21.4441 16.71 21.73C17.3249 22.3449 17.6825 23.1709 17.71 24.04V24.51C17.7518 25.4398 17.433 26.3497 16.82 27.05C16.5174 27.3678 16.1501 27.6171 15.743 27.781C15.3359 27.9449 14.8984 28.0195 14.46 28C14.0185 28.0205 13.5777 27.9463 13.1672 27.7825C12.7568 27.6186 12.3861 27.3689 12.08 27.05C11.462 26.3334 11.1465 25.4048 11.2 24.46V24.38ZM13.03 24.51C12.9993 25.0327 13.1283 25.5524 13.4 26C13.5243 26.1599 13.6836 26.2894 13.8655 26.3784C14.0475 26.4674 14.2474 26.5137 14.45 26.5137C14.6526 26.5137 14.8525 26.4674 15.0345 26.3784C15.2164 26.2894 15.3757 26.1599 15.5 26C15.7872 25.5037 15.9163 24.9316 15.87 24.36C15.9032 23.8402 15.7739 23.323 15.5 22.88C15.3836 22.7082 15.225 22.5692 15.0393 22.4764C14.8537 22.3835 14.6473 22.34 14.44 22.35C14.2433 22.3473 14.049 22.3934 13.8745 22.4841C13.7 22.5749 13.5507 22.7074 13.44 22.87C13.1336 23.3608 12.9804 23.9318 13 24.51H13.03ZM21 19.32V21H22.18V22.34H21V25.77C20.9826 25.9654 21.0358 26.1605 21.15 26.32C21.227 26.3842 21.3167 26.4316 21.4131 26.4592C21.5095 26.4867 21.6107 26.4938 21.71 26.48C21.8863 26.4968 22.0637 26.4968 22.24 26.48V27.87C21.8802 27.979 21.5059 28.0329 21.13 28.03C20.8624 28.0708 20.5889 28.049 20.3311 27.9662C20.0733 27.8835 19.8383 27.742 19.6444 27.553C19.4506 27.364 19.3032 27.1326 19.214 26.877C19.1247 26.6214 19.096 26.3486 19.13 26.08V22.38H18.13V21H19.13V19.32H21ZM25 21.76C25.2158 21.4813 25.4935 21.2567 25.8111 21.104C26.1288 20.9512 26.4776 20.8746 26.83 20.88C28.32 20.88 29.08 21.75 29.1 23.48V27.88H27.28V23.53C27.3079 23.2159 27.2189 22.9025 27.03 22.65C26.9149 22.5479 26.7801 22.4704 26.6339 22.4223C26.4877 22.3741 26.3333 22.3563 26.18 22.37C25.9438 22.3525 25.7075 22.4024 25.4986 22.5139C25.2897 22.6254 25.1168 22.794 25 23V27.89H23.18V18.12H25V21.76Z" fill="white"/>
<path d="M41 22V26H37V22H41ZM43 20H35V28H43V20Z" fill="white"/>
</svg>
