<svg width="48" height="48" viewBox="0 0 48 48" fill="none" xmlns="http://www.w3.org/2000/svg">
<path d="M9.56001 26.52C9.86193 26.5336 10.158 26.4337 10.39 26.24C10.4936 26.1465 10.5765 26.0324 10.6333 25.9049C10.6901 25.7775 10.7197 25.6395 10.72 25.5H12.44C12.437 25.954 12.3052 26.3979 12.06 26.78C11.8152 27.1657 11.4693 27.477 11.06 27.68C10.6036 27.9054 10.0988 28.0152 9.59 28C9.15917 28.0209 8.72891 27.9486 8.32854 27.7881C7.92817 27.6276 7.56712 27.3827 7.27 27.07C6.66828 26.3458 6.36442 25.4199 6.42 24.48V24.36C6.372 23.4411 6.67191 22.5377 7.26 21.83C7.55531 21.5137 7.91556 21.265 8.31601 21.101C8.71647 20.9371 9.14766 20.8617 9.58 20.88C10.3392 20.8416 11.0829 21.1039 11.65 21.61C11.9103 21.862 12.115 22.1657 12.2511 22.5015C12.3871 22.8373 12.4515 23.1979 12.44 23.56H10.72C10.7211 23.2392 10.6036 22.9293 10.39 22.69C10.2805 22.5797 10.1493 22.4935 10.0047 22.4366C9.8601 22.3798 9.70525 22.3537 9.55 22.36C9.35656 22.3421 9.16185 22.3763 8.98604 22.4589C8.81022 22.5415 8.65968 22.6696 8.55 22.83C8.29297 23.2896 8.17812 23.8151 8.22 24.34V24.53C8.17713 25.0614 8.29192 25.5936 8.55 26.06C8.66247 26.2193 8.81526 26.3459 8.99274 26.4267C9.17022 26.5075 9.36599 26.5397 9.56001 26.52ZM13.2 24.38C13.1884 23.7514 13.3219 23.1286 13.59 22.56C13.8332 22.0423 14.2271 21.6101 14.72 21.32C15.2435 21.0218 15.8376 20.8698 16.44 20.88C16.8559 20.8631 17.2711 20.9296 17.6609 21.0755C18.0508 21.2215 18.4075 21.444 18.71 21.73C19.3249 22.3449 19.6825 23.1709 19.71 24.04V24.51C19.7518 25.4397 19.433 26.3497 18.82 27.05C18.5174 27.3678 18.1501 27.6171 17.743 27.781C17.3359 27.9448 16.8984 28.0195 16.46 28C16.0185 28.0205 15.5777 27.9463 15.1672 27.7824C14.7568 27.6186 14.3861 27.3689 14.08 27.05C13.462 26.3334 13.1465 25.4048 13.2 24.46V24.38ZM15.03 24.51C14.9993 25.0327 15.1283 25.5524 15.4 26C15.5243 26.1599 15.6836 26.2893 15.8655 26.3784C16.0475 26.4674 16.2474 26.5137 16.45 26.5137C16.6526 26.5137 16.8525 26.4674 17.0345 26.3784C17.2164 26.2893 17.3757 26.1599 17.5 26C17.7872 25.5037 17.9163 24.9316 17.87 24.36C17.9032 23.8402 17.7739 23.323 17.5 22.88C17.3836 22.7082 17.225 22.5692 17.0393 22.4763C16.8537 22.3835 16.6473 22.34 16.44 22.35C16.2433 22.3473 16.049 22.3933 15.8745 22.4841C15.7 22.5748 15.5507 22.7074 15.44 22.87C15.1336 23.3608 14.9804 23.9317 15 24.51H15.03ZM23 19.32V21H24.18V22.34H23V25.77C22.9826 25.9654 23.0358 26.1605 23.15 26.32C23.2271 26.3842 23.3167 26.4316 23.4131 26.4591C23.5095 26.4867 23.6107 26.4938 23.71 26.48C23.8863 26.4968 24.0637 26.4968 24.24 26.48V27.87C23.8802 27.979 23.506 28.0329 23.13 28.03C22.8624 28.0708 22.5889 28.049 22.3311 27.9662C22.0733 27.8835 21.8383 27.742 21.6444 27.553C21.4506 27.364 21.3032 27.1326 21.214 26.877C21.1247 26.6214 21.096 26.3486 21.13 26.08V22.38H20.13V21H21.13V19.32H23ZM27 21.76C27.2158 21.4813 27.4935 21.2567 27.8111 21.104C28.1288 20.9512 28.4776 20.8745 28.83 20.88C30.32 20.88 31.08 21.75 31.1 23.48V27.88H29.28V23.53C29.3079 23.2159 29.2189 22.9025 29.03 22.65C28.9149 22.5479 28.7801 22.4704 28.6339 22.4223C28.4877 22.3741 28.3333 22.3563 28.18 22.37C27.9438 22.3524 27.7075 22.4023 27.4986 22.5139C27.2897 22.6254 27.1168 22.794 27 23V27.89H25.18V18.12H27V21.76Z" fill="white"/>
<path d="M40 22V26H36V22H40ZM42 20H34V28H42V20Z" fill="white"/>
</svg>
