<svg width="48" height="48" viewBox="0 0 48 48" fill="none" xmlns="http://www.w3.org/2000/svg">
<path d="M11.56 26.52C11.8619 26.5336 12.158 26.4337 12.39 26.24C12.4936 26.1465 12.5765 26.0324 12.6333 25.9049C12.6901 25.7775 12.7197 25.6396 12.72 25.5H14.44C14.437 25.9541 14.3052 26.3979 14.06 26.78C13.8152 27.1658 13.4693 27.477 13.06 27.68C12.6126 27.9006 12.1187 28.0104 11.62 28C11.1892 28.0209 10.7589 27.9486 10.3585 27.7881C9.95817 27.6277 9.59712 27.3827 9.3 27.07C8.69828 26.3458 8.39441 25.4199 8.45 24.48V24.36C8.402 23.4411 8.70191 22.5378 9.29 21.83C9.58531 21.5137 9.94556 21.2651 10.346 21.1011C10.7465 20.9371 11.1777 20.8617 11.61 20.88C12.3692 20.8417 13.1129 21.1039 13.68 21.61C13.9403 21.8621 14.145 22.1657 14.2811 22.5016C14.4171 22.8374 14.4815 23.1979 14.47 23.56H12.72C12.7211 23.2392 12.6036 22.9294 12.39 22.69C12.2805 22.5798 12.1493 22.4935 12.0047 22.4367C11.8601 22.3799 11.7052 22.3538 11.55 22.36C11.3566 22.3421 11.1619 22.3763 10.986 22.4589C10.8102 22.5416 10.6597 22.6697 10.55 22.83C10.293 23.2896 10.1781 23.8151 10.22 24.34V24.53C10.1771 25.0614 10.2919 25.5936 10.55 26.06C10.6625 26.2194 10.8153 26.3459 10.9927 26.4267C11.1702 26.5076 11.366 26.5398 11.56 26.52ZM19.2 26C19.2001 25.8897 19.1692 25.7815 19.1109 25.6878C19.0525 25.5941 18.9691 25.5187 18.87 25.47C18.5334 25.2992 18.1725 25.1811 17.8 25.12C16.17 24.78 15.35 24.12 15.35 23.04C15.3469 22.7431 15.4141 22.4497 15.5462 22.1837C15.6783 21.9178 15.8715 21.6869 16.11 21.51C16.6844 21.0782 17.3924 20.8622 18.11 20.9C18.8575 20.8582 19.5962 21.0774 20.2 21.52C20.4504 21.6998 20.6538 21.9373 20.7931 22.2123C20.9323 22.4873 21.0033 22.7918 21 23.1H19.13C19.1344 22.9789 19.1145 22.8581 19.0716 22.7448C19.0287 22.6315 18.9635 22.5279 18.88 22.44C18.7716 22.3479 18.6458 22.2784 18.5102 22.2355C18.3745 22.1925 18.2317 22.1771 18.09 22.19C17.8328 22.1735 17.578 22.2478 17.37 22.4C17.2891 22.4621 17.2243 22.5425 17.1808 22.6347C17.1373 22.7269 17.1165 22.8282 17.12 22.93C17.1191 23.0292 17.1446 23.1268 17.1938 23.2129C17.243 23.299 17.3141 23.3705 17.4 23.42C17.7123 23.5857 18.0504 23.6973 18.4 23.75C18.7901 23.822 19.1745 23.9223 19.55 24.05C19.9634 24.1526 20.3306 24.3904 20.5933 24.7256C20.856 25.0608 20.9992 25.4741 21 25.9C21.0037 26.2011 20.9314 26.4982 20.7898 26.7639C20.6483 27.0295 20.4419 27.2552 20.19 27.42C19.5735 27.8324 18.8408 28.0357 18.1 28C17.5732 28.0129 17.0503 27.9069 16.57 27.69C16.1488 27.513 15.7852 27.2221 15.52 26.85C15.2676 26.5159 15.1307 26.1088 15.13 25.69H16.87C16.8739 25.8343 16.909 25.9761 16.9728 26.1056C17.0367 26.235 17.1278 26.3491 17.24 26.44C17.5026 26.6246 17.8194 26.7161 18.14 26.7C18.4178 26.7177 18.6941 26.6477 18.93 26.5C19.0116 26.4442 19.0787 26.3698 19.1257 26.2828C19.1726 26.1958 19.1981 26.0989 19.2 26ZM25 26.52C25.3022 26.5356 25.599 26.4355 25.83 26.24C25.9336 26.1465 26.0165 26.0324 26.0733 25.9049C26.1301 25.7775 26.1597 25.6396 26.16 25.5H27.9C27.9021 25.9548 27.7699 26.4001 27.52 26.78C27.2776 27.1678 26.9311 27.4797 26.52 27.68C26.0758 27.8994 25.5854 28.0092 25.09 28C24.6575 28.0224 24.2253 27.9508 23.8231 27.7903C23.4209 27.6297 23.0582 27.384 22.76 27.07C22.1627 26.3434 21.8594 25.4193 21.91 24.48V24.36C21.8608 23.4392 22.1648 22.5343 22.76 21.83C23.0439 21.521 23.3907 21.2763 23.7771 21.1124C24.1635 20.9486 24.5805 20.8693 25 20.88C25.7592 20.8417 26.5029 21.1039 27.07 21.61C27.3303 21.8621 27.535 22.1657 27.6711 22.5016C27.8071 22.8374 27.8715 23.1979 27.86 23.56H26.18C26.1811 23.2392 26.0636 22.9294 25.85 22.69C25.7409 22.5793 25.6098 22.4927 25.4651 22.4358C25.3204 22.379 25.1653 22.3531 25.01 22.36C24.8166 22.3421 24.6219 22.3763 24.446 22.4589C24.2702 22.5416 24.1197 22.6697 24.01 22.83C23.7619 23.2927 23.6509 23.8165 23.69 24.34V24.53C23.6416 25.0594 23.7494 25.5913 24 26.06C24.1123 26.217 24.2636 26.342 24.439 26.4227C24.6143 26.5034 24.8077 26.5369 25 26.52Z" fill="white"/>
<path d="M37 22V26H33V22H37ZM39 20H31V28H39V20Z" fill="white"/>
</svg>
