<svg width="48" height="48" viewBox="0 0 48 48" fill="none" xmlns="http://www.w3.org/2000/svg">
<path d="M8.56 26.52C8.86192 26.5336 9.15801 26.4337 9.39 26.24C9.49359 26.1465 9.57647 26.0324 9.6333 25.9049C9.69014 25.7775 9.71967 25.6395 9.72 25.5H11.44C11.437 25.954 11.3052 26.3979 11.06 26.78C10.8152 27.1657 10.4693 27.477 10.06 27.68C9.60357 27.9054 9.0988 28.0152 8.59 28C8.15917 28.0209 7.7289 27.9486 7.32853 27.7881C6.92816 27.6276 6.56711 27.3827 6.27 27.07C5.66827 26.3458 5.36441 25.4199 5.42 24.48V24.36C5.372 23.4411 5.67191 22.5377 6.26 21.83C6.55531 21.5137 6.91555 21.265 7.31601 21.101C7.71646 20.9371 8.14766 20.8617 8.58 20.88C9.33915 20.8416 10.0828 21.1039 10.65 21.61C10.9103 21.862 11.115 22.1657 11.2511 22.5015C11.3871 22.8373 11.4515 23.1979 11.44 23.56H9.72C9.7211 23.2392 9.60357 22.9293 9.39 22.69C9.28053 22.5797 9.14932 22.4935 9.00471 22.4366C8.86009 22.3798 8.70524 22.3537 8.55 22.36C8.35655 22.3421 8.16185 22.3763 7.98603 22.4589C7.81021 22.5415 7.65967 22.6696 7.55 22.83C7.29296 23.2896 7.17811 23.8151 7.22 24.34V24.53C7.17712 25.0614 7.29191 25.5936 7.55 26.06C7.66246 26.2193 7.81526 26.3459 7.99273 26.4267C8.17021 26.5075 8.36598 26.5397 8.56 26.52ZM16.2 26C16.2001 25.8896 16.1692 25.7815 16.1108 25.6878C16.0525 25.5941 15.9691 25.5186 15.87 25.47C15.5334 25.2991 15.1725 25.1811 14.8 25.12C13.17 24.78 12.35 24.12 12.35 23.04C12.3468 22.7431 12.4141 22.4496 12.5462 22.1837C12.6783 21.9177 12.8715 21.6869 13.11 21.51C13.6844 21.0781 14.3924 20.8622 15.11 20.9C15.8575 20.8582 16.5962 21.0774 17.2 21.52C17.4504 21.6998 17.6538 21.9372 17.793 22.2122C17.9323 22.4873 18.0033 22.7918 18 23.1H16.13C16.1344 22.9789 16.1145 22.8581 16.0716 22.7448C16.0287 22.6314 15.9635 22.5278 15.88 22.44C15.7716 22.3479 15.6458 22.2783 15.5102 22.2354C15.3745 22.1925 15.2317 22.177 15.09 22.19C14.8328 22.1735 14.578 22.2478 14.37 22.4C14.2891 22.462 14.2243 22.5425 14.1808 22.6347C14.1373 22.7269 14.1165 22.8281 14.12 22.93C14.1191 23.0291 14.1446 23.1268 14.1938 23.2128C14.243 23.2989 14.3141 23.3704 14.4 23.42C14.7123 23.5857 15.0504 23.6973 15.4 23.75C15.7901 23.822 16.1744 23.9222 16.55 24.05C16.9633 24.1526 17.3306 24.3903 17.5933 24.7255C17.856 25.0607 17.9992 25.4741 18 25.9C18.0037 26.201 17.9314 26.4981 17.7898 26.7638C17.6482 27.0295 17.4419 27.2552 17.19 27.42C16.5735 27.8323 15.8408 28.0357 15.1 28C14.5732 28.0128 14.0503 27.9069 13.57 27.69C13.1488 27.5129 12.7852 27.2221 12.52 26.85C12.2676 26.5159 12.1307 26.1087 12.13 25.69H13.87C13.8739 25.8343 13.909 25.9761 13.9728 26.1055C14.0367 26.235 14.1278 26.3491 14.24 26.44C14.5026 26.6246 14.8194 26.7161 15.14 26.7C15.4178 26.7176 15.6941 26.6477 15.93 26.5C16.0116 26.4442 16.0787 26.3697 16.1257 26.2827C16.1726 26.1958 16.1981 26.0988 16.2 26ZM22 26.52C22.3022 26.5356 22.599 26.4355 22.83 26.24C22.9336 26.1465 23.0165 26.0324 23.0733 25.9049C23.1301 25.7775 23.1597 25.6395 23.16 25.5H24.9C24.9021 25.9548 24.7699 26.4 24.52 26.78C24.2776 27.1678 23.9311 27.4796 23.52 27.68C23.0758 27.8994 22.5854 28.0091 22.09 28C21.6575 28.0223 21.2253 27.9508 20.8231 27.7902C20.4209 27.6297 20.0582 27.384 19.76 27.07C19.1627 26.3434 18.8594 25.4193 18.91 24.48V24.36C18.8608 23.4392 19.1648 22.5343 19.76 21.83C20.0439 21.5209 20.3907 21.2763 20.7771 21.1124C21.1635 20.9485 21.5805 20.8693 22 20.88C22.7591 20.8416 23.5028 21.1039 24.07 21.61C24.3303 21.862 24.535 22.1657 24.6711 22.5015C24.8071 22.8373 24.8715 23.1979 24.86 23.56H23.18C23.1811 23.2392 23.0636 22.9293 22.85 22.69C22.7409 22.5792 22.6098 22.4926 22.465 22.4358C22.3203 22.3789 22.1653 22.3531 22.01 22.36C21.8166 22.3421 21.6218 22.3763 21.446 22.4589C21.2702 22.5415 21.1197 22.6696 21.01 22.83C20.7619 23.2927 20.6509 23.8165 20.69 24.34V24.53C20.6416 25.0593 20.7494 25.5912 21 26.06C21.1123 26.217 21.2636 26.342 21.439 26.4227C21.6143 26.5033 21.8077 26.5369 22 26.52ZM27.74 21.76C27.9547 21.4801 28.2322 21.2547 28.5501 21.1018C28.868 20.9489 29.2173 20.873 29.57 20.88C31.06 20.88 31.82 21.75 31.84 23.48V27.88H30V23.53C30.0279 23.2159 29.9389 22.9025 29.75 22.65C29.6348 22.5479 29.5001 22.4704 29.3539 22.4223C29.2077 22.3741 29.0533 22.3563 28.9 22.37C28.6681 22.3553 28.4368 22.4056 28.2319 22.5151C28.027 22.6246 27.8566 22.7891 27.74 22.99V27.88H25.9V18.12H27.74V21.76Z" fill="white"/>
<path d="M41 22V26H37V22H41ZM43 20H35V28H43V20Z" fill="white"/>
</svg>
