<svg width="48" height="48" viewBox="0 0 48 48" fill="none" xmlns="http://www.w3.org/2000/svg">
<path d="M32 19H30V18H32V19ZM34.87 20.43H33.73V16.84L32.37 17.28V16.28L34.74 15.39H34.87V20.43ZM7.56 26.52C7.86192 26.5336 8.15801 26.4337 8.39 26.24C8.49359 26.1465 8.57647 26.0324 8.6333 25.9049C8.69014 25.7775 8.71967 25.6396 8.72 25.5H10.44C10.437 25.954 10.3052 26.3979 10.06 26.78C9.81516 27.1658 9.46931 27.477 9.06 27.68C8.60357 27.9054 8.0988 28.0153 7.59 28C7.15917 28.0209 6.7289 27.9486 6.32853 27.7881C5.92816 27.6276 5.56711 27.3827 5.27 27.07C4.66827 26.3458 4.36441 25.4199 4.42 24.48V24.36C4.372 23.4411 4.67191 22.5378 5.26 21.83C5.55531 21.5137 5.91555 21.265 6.31601 21.1011C6.71646 20.9371 7.14766 20.8617 7.58 20.88C8.33915 20.8417 9.08285 21.1039 9.65 21.61C9.91028 21.8621 10.115 22.1657 10.2511 22.5015C10.3871 22.8373 10.4515 23.1979 10.44 23.56H8.72C8.7211 23.2392 8.60357 22.9294 8.39 22.69C8.28053 22.5798 8.14932 22.4935 8.00471 22.4367C7.86009 22.3798 7.70524 22.3537 7.55 22.36C7.35655 22.3421 7.16185 22.3763 6.98603 22.4589C6.81021 22.5415 6.65967 22.6697 6.55 22.83C6.29296 23.2896 6.17811 23.8151 6.22 24.34V24.53C6.17712 25.0614 6.29191 25.5936 6.55 26.06C6.66246 26.2193 6.81526 26.3459 6.99273 26.4267C7.17021 26.5076 7.36598 26.5398 7.56 26.52ZM15.2 26C15.2001 25.8896 15.1692 25.7815 15.1108 25.6878C15.0525 25.5941 14.9691 25.5186 14.87 25.47C14.5334 25.2992 14.1725 25.1811 13.8 25.12C12.17 24.78 11.35 24.12 11.35 23.04C11.3468 22.7431 11.4141 22.4496 11.5462 22.1837C11.6783 21.9178 11.8715 21.6869 12.11 21.51C12.6844 21.0781 13.3924 20.8622 14.11 20.9C14.8575 20.8582 15.5962 21.0774 16.2 21.52C16.4504 21.6998 16.6538 21.9373 16.793 22.2123C16.9323 22.4873 17.0033 22.7918 17 23.1H15.13C15.1344 22.9789 15.1145 22.8581 15.0716 22.7448C15.0287 22.6315 14.9635 22.5278 14.88 22.44C14.7716 22.3479 14.6458 22.2784 14.5102 22.2354C14.3745 22.1925 14.2317 22.1771 14.09 22.19C13.8328 22.1735 13.578 22.2478 13.37 22.4C13.2891 22.4621 13.2243 22.5425 13.1808 22.6347C13.1373 22.7269 13.1165 22.8281 13.12 22.93C13.1191 23.0292 13.1446 23.1268 13.1938 23.2129C13.243 23.299 13.3141 23.3704 13.4 23.42C13.7123 23.5857 14.0504 23.6973 14.4 23.75C14.7901 23.822 15.1744 23.9223 15.55 24.05C15.9633 24.1526 16.3306 24.3904 16.5933 24.7256C16.856 25.0607 16.9992 25.4741 17 25.9C17.0037 26.201 16.9314 26.4982 16.7898 26.7638C16.6482 27.0295 16.4419 27.2552 16.19 27.42C15.5735 27.8324 14.8408 28.0357 14.1 28C13.5732 28.0128 13.0503 27.9069 12.57 27.69C12.1488 27.513 11.7852 27.2221 11.52 26.85C11.2676 26.5159 11.1307 26.1088 11.13 25.69H12.87C12.8739 25.8343 12.909 25.9761 12.9728 26.1055C13.0367 26.235 13.1278 26.3491 13.24 26.44C13.5026 26.6246 13.8194 26.7161 14.14 26.7C14.4178 26.7177 14.6941 26.6477 14.93 26.5C15.0116 26.4442 15.0787 26.3697 15.1257 26.2828C15.1726 26.1958 15.1981 26.0988 15.2 26ZM21 26.52C21.3022 26.5356 21.599 26.4355 21.83 26.24C21.9336 26.1465 22.0165 26.0324 22.0733 25.9049C22.1301 25.7775 22.1597 25.6396 22.16 25.5H23.9C23.9021 25.9548 23.7699 26.4001 23.52 26.78C23.2776 27.1678 22.9311 27.4797 22.52 27.68C22.0758 27.8994 21.5854 28.0092 21.09 28C20.6575 28.0224 20.2253 27.9508 19.8231 27.7903C19.4209 27.6297 19.0582 27.384 18.76 27.07C18.1627 26.3434 17.8594 25.4193 17.91 24.48V24.36C17.8608 23.4392 18.1648 22.5343 18.76 21.83C19.0439 21.521 19.3907 21.2763 19.7771 21.1124C20.1635 20.9486 20.5805 20.8693 21 20.88C21.7591 20.8417 22.5028 21.1039 23.07 21.61C23.3303 21.8621 23.535 22.1657 23.6711 22.5015C23.8071 22.8373 23.8715 23.1979 23.86 23.56H22.18C22.1811 23.2392 22.0636 22.9294 21.85 22.69C21.7409 22.5793 21.6098 22.4926 21.465 22.4358C21.3203 22.3789 21.1653 22.3531 21.01 22.36C20.8166 22.3421 20.6218 22.3763 20.446 22.4589C20.2702 22.5415 20.1197 22.6697 20.01 22.83C19.7619 23.2927 19.6509 23.8165 19.69 24.34V24.53C19.6416 25.0593 19.7494 25.5913 20 26.06C20.1123 26.217 20.2636 26.342 20.439 26.4227C20.6143 26.5034 20.8077 26.5369 21 26.52ZM26.74 21.76C26.9547 21.4802 27.2322 21.2547 27.5501 21.1018C27.868 20.949 28.2173 20.873 28.57 20.88C30.06 20.88 30.82 21.75 30.84 23.48V27.88H29V23.53C29.0279 23.2159 28.9389 22.9025 28.75 22.65C28.6348 22.5479 28.5001 22.4704 28.3539 22.4223C28.2077 22.3741 28.0533 22.3563 27.9 22.37C27.6681 22.3553 27.4368 22.4056 27.2319 22.5151C27.027 22.6246 26.8566 22.7891 26.74 22.99V27.88H24.9V18.12H26.74V21.76Z" fill="white"/>
<path d="M42 22V26H38V22H42ZM44 20H36V28H44V20Z" fill="white"/>
</svg>
