<svg width="48" height="48" viewBox="0 0 48 48" fill="none" xmlns="http://www.w3.org/2000/svg">
<path fill-rule="evenodd" clip-rule="evenodd" d="M36 15V17H23.29L18.28 31H15.97L13.45 24.66H11V22.5H15.2L17.06 27.71L21.46 15H36Z" fill="white"/>
<path d="M15.06 20.1C15.6619 20.1275 16.255 19.9475 16.74 19.59C16.9435 19.4302 17.1066 19.2247 17.216 18.9902C17.3255 18.7557 17.3782 18.4987 17.37 18.24C17.3832 17.9106 17.2846 17.5863 17.09 17.32C16.8935 17.0622 16.6258 16.8675 16.32 16.76C16.6045 16.6341 16.8498 16.4337 17.03 16.18C17.1913 15.9556 17.2787 15.6865 17.28 15.41C17.2914 15.1578 17.244 14.9064 17.1416 14.6756C17.0393 14.4448 16.8846 14.2409 16.69 14.08C16.2183 13.7369 15.6424 13.5674 15.06 13.6C14.6948 13.5944 14.3328 13.6695 14 13.82C13.6965 13.9514 13.4339 14.1621 13.24 14.43C13.0598 14.6915 12.9655 15.0026 12.97 15.32H14.41C14.4088 15.2383 14.4272 15.1575 14.4638 15.0844C14.5003 15.0114 14.5539 14.9481 14.62 14.9C14.7565 14.7845 14.9312 14.7239 15.11 14.73C15.2091 14.7225 15.3087 14.7365 15.4019 14.771C15.4951 14.8055 15.5797 14.8598 15.65 14.93C15.7146 14.9977 15.7647 15.0779 15.7974 15.1655C15.8301 15.2532 15.8446 15.3466 15.84 15.44C15.8549 15.5486 15.8445 15.6591 15.8096 15.763C15.7746 15.8669 15.7161 15.9612 15.6387 16.0387C15.5612 16.1162 15.4668 16.1747 15.363 16.2096C15.2591 16.2445 15.1486 16.255 15.04 16.24H14.36V17.33H15.06C15.2934 17.3187 15.5234 17.3895 15.71 17.53C15.7945 17.6205 15.8587 17.728 15.8984 17.8452C15.9381 17.9625 15.9523 18.0869 15.94 18.21C15.9432 18.3119 15.9253 18.4134 15.8874 18.508C15.8496 18.6027 15.7926 18.6885 15.72 18.76C15.5511 18.9056 15.3327 18.9808 15.11 18.97C14.903 18.9761 14.7019 18.9007 14.55 18.76C14.4756 18.698 14.4162 18.6199 14.3763 18.5315C14.3365 18.4432 14.3172 18.3469 14.32 18.25H12.87C12.8564 18.6031 12.9506 18.9519 13.14 19.25C13.3336 19.5398 13.6084 19.7659 13.93 19.9C14.288 20.0469 14.6734 20.1151 15.06 20.1Z" fill="white"/>
<path d="M32 21V27H26V21H32ZM34 19H24V29H34V19Z" fill="white"/>
</svg>
