<svg width="48" height="48" viewBox="0 0 48 48" fill="none" xmlns="http://www.w3.org/2000/svg">
<path d="M21 24C20.9947 23.602 21.0719 23.2073 21.2268 22.8407C21.3817 22.4741 21.611 22.1436 21.9 21.87C22.1748 21.5928 22.502 21.3732 22.8625 21.2238C23.2231 21.0745 23.6097 20.9984 24 21C24.3916 20.9951 24.7801 21.0706 25.1413 21.222C25.5026 21.3734 25.8289 21.5973 26.1 21.88C26.3864 22.1535 26.6139 22.4826 26.7687 22.8472C26.9234 23.2117 27.0021 23.604 27 24C27.0095 24.3952 26.9362 24.7881 26.7846 25.1532C26.633 25.5183 26.4066 25.8477 26.12 26.12C25.8444 26.4023 25.5145 26.6258 25.1501 26.777C24.7857 26.9283 24.3945 27.0041 24 27C23.2109 27.002 22.4529 26.693 21.89 26.14C21.5964 25.8683 21.3649 25.5365 21.2114 25.1672C21.0578 24.7978 20.9857 24.3997 21 24ZM24 25.36C24.1826 25.3738 24.3661 25.3489 24.5385 25.2868C24.7108 25.2248 24.8681 25.127 25 25C25.1319 24.8703 25.2349 24.7141 25.3021 24.5418C25.3693 24.3694 25.3993 24.1848 25.39 24C25.3957 23.8156 25.364 23.632 25.297 23.4602C25.23 23.2884 25.129 23.1318 25 23C24.8756 22.8594 24.721 22.7486 24.5479 22.6759C24.3748 22.6032 24.1875 22.5704 24 22.58C23.8131 22.5752 23.6273 22.6101 23.4549 22.6825C23.2825 22.7549 23.1274 22.8631 23 23C22.8697 23.1313 22.7671 23.2876 22.6984 23.4593C22.6297 23.6311 22.5962 23.815 22.6 24C22.5926 24.1854 22.6244 24.3703 22.6934 24.5426C22.7623 24.7149 22.8668 24.8708 23 25C23.1327 25.1272 23.2896 25.2263 23.4614 25.2916C23.6332 25.3569 23.8164 25.387 24 25.38V25.36Z" fill="white"/>
</svg>
