<svg width="48" height="48" viewBox="0 0 48 48" fill="none" xmlns="http://www.w3.org/2000/svg">
<path fill-rule="evenodd" clip-rule="evenodd" d="M23.73 29C22.9899 28.9981 22.2667 28.779 21.65 28.37C21.057 27.9602 20.6006 27.382 20.34 26.71C20.0453 25.9673 19.9288 25.1658 20 24.37V24C20.0821 23.0716 20.3617 22.1715 20.82 21.36C21.2165 20.6345 21.7913 20.0219 22.49 19.58C23.1558 19.1701 23.9288 18.9682 24.71 19C25.221 18.9857 25.7271 19.1022 26.1804 19.3385C26.6337 19.5748 27.019 19.9229 27.3 20.35C27.9276 21.3724 28.1754 22.5831 28 23.77L27.88 24.7H22C21.9133 25.3466 22.0702 26.0024 22.44 26.54C22.6027 26.7663 22.8177 26.95 23.0667 27.0753C23.3157 27.2007 23.5913 27.264 23.87 27.26C24.3351 27.26 24.794 27.1538 25.2117 26.9492C25.6294 26.7447 25.9948 26.4474 26.28 26.08L27.28 27.2C26.9013 27.7737 26.3767 28.2362 25.76 28.54C25.1147 28.861 24.4005 29.0189 23.68 29M24.55 20.73C23.48 20.73 22.67 21.49 22.14 23.1H26V22.91C26.0399 22.6448 26.0399 22.3751 26 22.11C25.9583 21.7338 25.793 21.3821 25.53 21.11C25.2552 20.8627 24.8997 20.724 24.53 20.72" fill="white"/>
</svg>
