<svg width="48" height="48" viewBox="0 0 48 48" fill="none" xmlns="http://www.w3.org/2000/svg">
<path fill-rule="evenodd" clip-rule="evenodd" d="M19.73 29C18.9899 28.9981 18.2667 28.779 17.65 28.37C17.057 27.9602 16.6006 27.382 16.34 26.71C16.0453 25.9673 15.9288 25.1658 16 24.37V24C16.0821 23.0716 16.3617 22.1715 16.82 21.36C17.2165 20.6345 17.7913 20.0219 18.49 19.58C19.1558 19.1701 19.9288 18.9682 20.71 19C21.221 18.9857 21.7271 19.1022 22.1804 19.3385C22.6337 19.5748 23.019 19.9229 23.3 20.35C23.9276 21.3724 24.1754 22.5831 24 23.77L23.88 24.7H18C17.9133 25.3466 18.0702 26.0024 18.44 26.54C18.6027 26.7663 18.8177 26.95 19.0667 27.0753C19.3157 27.2007 19.5913 27.264 19.87 27.26C20.3351 27.26 20.794 27.1538 21.2117 26.9492C21.6294 26.7447 21.9948 26.4474 22.28 26.08L23.28 27.2C22.9013 27.7737 22.3767 28.2362 21.76 28.54C21.1147 28.861 20.4005 29.0189 19.68 29M20.55 20.73C19.48 20.73 18.67 21.49 18.14 23.1H22V22.91C22.0399 22.6448 22.0399 22.3751 22 22.11C21.9583 21.7338 21.793 21.3821 21.53 21.11C21.2552 20.8627 20.8997 20.724 20.53 20.72" fill="white"/>
<path d="M32 16V20H28V16H32ZM34 14H26V22H34V14Z" fill="white"/>
</svg>
