<?xml version="1.0" encoding="UTF-8"?>
<svg version="1.1" xmlns="http://www.w3.org/2000/svg" width="48" height="48">
<path d="M0 0 C3.3 0 6.6 0 10 0 C10 3.3 10 6.6 10 10 C6.7 10 3.4 10 0 10 C0 6.7 0 3.4 0 0 Z M2 2 C2 3.98 2 5.96 2 8 C3.98 8 5.96 8 8 8 C8 6.02 8 4.04 8 2 C6.02 2 4.04 2 2 2 Z " fill="#FFFFFF" transform="translate(19,28)"/>
<path d="M0 0 C3.3 0 6.6 0 10 0 C10 3.3 10 6.6 10 10 C6.7 10 3.4 10 0 10 C0 6.7 0 3.4 0 0 Z M2 2 C2 3.98 2 5.96 2 8 C3.98 8 5.96 8 8 8 C8 6.02 8 4.04 8 2 C6.02 2 4.04 2 2 2 Z " fill="#FFFFFF" transform="translate(19,10)"/>
<path d="M0 0 C5.94 0 11.88 0 18 0 C18 0.66 18 1.32 18 2 C12.06 2 6.12 2 0 2 C0 1.34 0 0.68 0 0 Z " fill="#FFFFFF" transform="translate(15,23)"/>
</svg>
