<svg width="20" height="20" viewBox="0 0 20 20" fill="none" xmlns="http://www.w3.org/2000/svg">
<path d="M4.83997 9.99998C4.83997 9.81998 4.74997 9.64998 4.69997 9.47998H4.46997L4.37997 9.78998C4.31997 9.98998 4.26997 10.19 4.21997 10.35C4.20416 10.3951 4.18407 10.4387 4.15997 10.48H4.99997C4.92997 10.34 4.88997 10.18 4.83997 9.99998Z" fill="white"/>
<path d="M7.81 9.5C7.81 9.61 7.86 9.71 7.89 9.82C7.92 9.93 8.02 10.28 8.08 10.5H8.31C8.37 10.31 8.42 10.11 8.47 9.92C8.52 9.73 8.55 9.64 8.58 9.5H7.81Z" fill="white"/>
<path d="M11.92 9.5H11.69L11.54 10.05L11.42 10.5H12.21C12.12 10.17 12 9.83 11.92 9.5Z" fill="white"/>
<path d="M9.5 14.89V18H10.5V13.33C10.2718 13.9104 9.9321 14.4404 9.5 14.89Z" fill="white"/>
<path d="M1.31 9.8V9.73V9.66C1.31 9.66 1.31 9.55 1.31 9.5H1V10.5H1.39C1.30814 10.2763 1.28071 10.0364 1.31 9.8Z" fill="white"/>
<path d="M18.62 9.5C18.7206 9.795 18.7206 10.115 18.62 10.41V10.5H19V9.5H18.62Z" fill="white"/>
<path d="M10.5 5.12V2H9.5V6.69C9.72815 6.10666 10.0678 5.57339 10.5 5.12Z" fill="white"/>
<path d="M15 9.5C15 9.67 15.09 9.83 15.13 10L15.27 10.5H15.5C15.5 10.4 15.56 10.3 15.58 10.2L15.75 9.62L15.81 9.5H15Z" fill="white"/>
<path d="M16.8 13.64C16.47 14.48 15.44 15.15 14.64 14.47C14.1728 14.0013 13.8292 13.4241 13.64 12.79C13 11 12.6 8.85999 11.8 7.05999C10.8 8.72999 10.28 14.59 8.25999 14.75C6.23999 14.91 5.57999 8.68999 4.58999 7.05999C4.18541 8.08261 3.85129 9.13173 3.58999 10.2C3.55021 10.4108 3.4283 10.5972 3.25108 10.7182C3.07385 10.8392 2.85584 10.8848 2.64499 10.845C2.43415 10.8052 2.24774 10.6833 2.12678 10.5061C2.00582 10.3289 1.96021 10.1108 1.99999 9.89999C2.49999 8.57999 2.99999 4.76999 4.99999 5.31999C6.80999 6.20999 7.17999 11.08 8.21999 12.94C9.21999 11.25 9.71999 5.52999 11.71 5.25999C13.89 5.05999 14.44 11.33 15.43 12.94C15.8448 11.9181 16.1889 10.869 16.46 9.79999C16.71 8.85999 18.26 9.25999 17.97 10.21C17.6704 11.3822 17.2792 12.529 16.8 13.64Z" fill="white"/>
</svg>
