<svg width="48" height="49" viewBox="0 0 48 49" fill="none" xmlns="http://www.w3.org/2000/svg">
<path fill-rule="evenodd" clip-rule="evenodd" d="M18 27.59C17.4048 27.2532 16.9109 26.7628 16.57 26.17C16.1984 25.5507 16.0014 24.8423 16 24.12C15.9951 23.4193 16.1745 22.7297 16.52 22.12C16.8659 21.4985 17.3785 20.986 18 20.64C18.6203 20.2986 19.3169 20.1196 20.025 20.1196C20.733 20.1196 21.4296 20.2986 22.05 20.64C22.7736 21.0772 23.408 21.6472 23.92 22.32L24.05 22.48L24.19 22.32C24.6838 21.6526 25.2976 21.0829 26 20.64C26.6221 20.2987 27.3203 20.1197 28.03 20.1197C28.7396 20.1197 29.4378 20.2987 30.06 20.64C30.65 20.9802 31.1398 21.47 31.48 22.06C31.8358 22.6873 32.0155 23.3991 32 24.12C32.0048 24.8207 31.8255 25.5104 31.48 26.12C31.134 26.7361 30.628 27.2472 30.0154 27.5992C29.4028 27.9513 28.7064 28.1312 28 28.12C27.2993 28.1249 26.6096 27.9456 26 27.6C25.284 27.1565 24.6539 26.5874 24.14 25.92L24 25.76L23.87 25.92C23.3531 26.5883 22.7196 27.1575 22 27.6C21.3904 27.9456 20.7007 28.1249 20 28.12C19.2976 28.1277 18.6064 27.9445 18 27.59ZM21.38 25.59C21.8539 25.2239 22.2776 24.7969 22.64 24.32L22.77 24.16L22.64 24.01C22.2801 23.5281 21.8562 23.0975 21.38 22.73C21.0384 22.4872 20.6291 22.3577 20.21 22.36C19.8848 22.3503 19.5631 22.4298 19.28 22.59C19.013 22.742 18.792 22.9631 18.64 23.23C18.4766 23.5087 18.3935 23.8271 18.4 24.15C18.3951 24.4728 18.478 24.7908 18.64 25.07C18.792 25.337 19.013 25.5581 19.28 25.71C19.5631 25.8703 19.8848 25.9498 20.21 25.94C20.6291 25.9424 21.0384 25.8129 21.38 25.57M28.82 25.71C29.0891 25.561 29.3109 25.3392 29.46 25.07C29.6219 24.7908 29.7049 24.4728 29.7 24.15C29.7064 23.8271 29.6233 23.5087 29.46 23.23C29.3109 22.9609 29.0891 22.7391 28.82 22.59C28.5368 22.4298 28.2152 22.3503 27.89 22.36C27.4708 22.3577 27.0616 22.4872 26.72 22.73C26.2438 23.0975 25.8199 23.5281 25.46 24.01L25.33 24.16L25.46 24.32C25.8224 24.7969 26.246 25.2239 26.72 25.59C27.0616 25.8329 27.4708 25.9624 27.89 25.96C28.2152 25.9698 28.5368 25.8903 28.82 25.73" fill="white"/>
</svg>
