<svg width="48" height="48" viewBox="0 0 48 48" fill="none" xmlns="http://www.w3.org/2000/svg">
<path d="M28 24.9367C27.994 23.8046 28.1454 22.6771 28.45 21.5867C28.7366 20.5725 29.1894 19.6128 29.79 18.7467C30.2587 18.021 30.8971 17.4204 31.65 16.9967L32 18.0767C31.227 18.7432 30.6498 19.6074 30.33 20.5767C29.8809 21.8078 29.6442 23.1063 29.63 24.4167V25.0767C29.6082 26.4789 29.8211 27.8748 30.26 29.2067C30.5689 30.2806 31.1715 31.2469 32 31.9967L31.65 32.9967C30.8935 32.5699 30.2518 31.966 29.78 31.2367C29.1826 30.3702 28.7331 29.4104 28.45 28.3967C28.1396 27.2699 27.9882 26.1054 28 24.9367ZM44 24.9367C44.006 23.8046 43.8546 22.6771 43.55 21.5867C43.2634 20.5725 42.8106 19.6128 42.21 18.7467C41.7413 18.021 41.1029 17.4204 40.35 16.9967L40 18.0767C40.773 18.7432 41.3502 19.6074 41.67 20.5767C42.1191 21.8078 42.3558 23.1063 42.37 24.4167V25.0767C42.3918 26.4789 42.1789 27.8748 41.74 29.2067C41.4311 30.2806 40.8285 31.2469 40 31.9967L40.35 32.9967C41.1065 32.5699 41.7482 31.966 42.22 31.2367C42.8174 30.3702 43.2669 29.4104 43.55 28.3967C43.8604 27.2699 44.0118 26.1054 44 24.9367ZM5.71 29.1067H4V20.4967H5.71V29.1067ZM6.6 25.9967C6.60556 25.4425 6.74266 24.8976 7 24.4067C7.22492 23.9571 7.57136 23.5794 8 23.3167C8.48688 23.0502 9.03505 22.9157 9.59 22.9267C9.97351 22.9022 10.358 22.9563 10.7198 23.0857C11.0817 23.2151 11.4132 23.4172 11.6942 23.6794C11.9751 23.9416 12.1995 24.2585 12.3535 24.6105C12.5076 24.9626 12.5881 25.3424 12.59 25.7267V26.1367C12.608 26.5457 12.5448 26.9543 12.4041 27.3387C12.2633 27.7232 12.0478 28.076 11.77 28.3767C11.4825 28.66 11.1396 28.8809 10.7627 29.0254C10.3859 29.17 9.98321 29.2351 9.58 29.2167C9.1752 29.2359 8.77081 29.1712 8.39222 29.0266C8.01363 28.882 7.66901 28.6608 7.38 28.3767C7.10485 28.0677 6.89413 27.7068 6.7602 27.3153C6.62626 26.9238 6.5718 26.5095 6.6 26.0967V25.9967ZM8.3 26.1167C8.26932 26.5817 8.38849 27.0444 8.64 27.4367C8.7543 27.5916 8.90595 27.715 9.0808 27.7954C9.25566 27.8758 9.44804 27.9107 9.64 27.8967C9.83107 27.9118 10.0229 27.8785 10.1977 27.7998C10.3724 27.7212 10.5246 27.5997 10.64 27.4467C10.8843 27.005 10.9856 26.4984 10.93 25.9967C10.9577 25.5337 10.8349 25.0742 10.58 24.6867C10.4656 24.5314 10.3142 24.4071 10.1396 24.325C9.96494 24.2429 9.77262 24.2057 9.58 24.2167C9.38782 24.2008 9.19478 24.2348 9.01959 24.3154C8.8444 24.396 8.69298 24.5204 8.58 24.6767C8.33644 25.1222 8.23852 25.6327 8.3 26.1367V26.1167ZM13.18 25.9967C13.1427 25.191 13.3905 24.3978 13.88 23.7567C14.105 23.4772 14.3921 23.2539 14.7184 23.1047C15.0448 22.9554 15.4014 22.8842 15.76 22.8967C16.0664 22.8789 16.3728 22.9319 16.6555 23.0516C16.9381 23.1712 17.1895 23.3543 17.39 23.5867L17.46 23.0167H19V28.8767C19.0105 29.3639 18.8785 29.8436 18.62 30.2567C18.3649 30.66 17.9911 30.9744 17.55 31.1567C17.0421 31.3753 16.4928 31.4811 15.94 31.4667C15.4734 31.4662 15.0114 31.3745 14.58 31.1967C14.1941 31.0591 13.8498 30.825 13.58 30.5167L14.34 29.5167C14.5318 29.7352 14.769 29.9092 15.035 30.0266C15.3009 30.1441 15.5893 30.2021 15.88 30.1967C16.2618 30.2182 16.6374 30.093 16.93 29.8467C17.0622 29.718 17.164 29.5615 17.228 29.3885C17.292 29.2155 17.3166 29.0304 17.3 28.8467V28.5167C17.1036 28.7261 16.8644 28.8907 16.5986 28.9995C16.3329 29.1082 16.0469 29.1584 15.76 29.1467C15.4054 29.1581 15.053 29.0873 14.7303 28.9398C14.4077 28.7923 14.1235 28.5722 13.9 28.2967C13.4025 27.6477 13.151 26.8435 13.19 26.0267L13.18 25.9967ZM14.88 26.1167C14.8552 26.5763 14.9778 27.0317 15.23 27.4167C15.3379 27.5667 15.4809 27.6881 15.6465 27.77C15.8121 27.8519 15.9953 27.892 16.18 27.8867C16.3987 27.9048 16.6181 27.862 16.8139 27.7632C17.0098 27.6644 17.1746 27.5133 17.29 27.3267V24.8067C17.177 24.6225 17.0156 24.4729 16.8234 24.3741C16.6312 24.2754 16.4155 24.2313 16.2 24.2467C16.0064 24.2359 15.8131 24.2742 15.6383 24.3582C15.4635 24.4421 15.3127 24.5689 15.2 24.7267C14.9501 25.156 14.8384 25.6517 14.88 26.1467V26.1167Z" fill="white"/>
<path d="M38 22.9967V26.9967H34V22.9967H38ZM40 20.9967H32V28.9967H40V20.9967ZM25 28.9967V30.9967H23V28.9967H25ZM27 26.9967H21V32.9967H27V26.9967Z" fill="white"/>
</svg>
