<svg width="48" height="48" viewBox="0 0 48 48" fill="none" xmlns="http://www.w3.org/2000/svg">
<path d="M21 23.94C20.994 22.8079 21.1454 21.6804 21.45 20.59C21.7366 19.5757 22.1894 18.6161 22.79 17.75C23.2587 17.0243 23.8971 16.4237 24.65 16L25 17.08C24.227 17.7465 23.6498 18.6107 23.33 19.58C22.8809 20.8111 22.6442 22.1096 22.63 23.42V24.08C22.6082 25.4822 22.8211 26.8781 23.26 28.21C23.5689 29.2839 24.1715 30.2502 25 31L24.65 32C23.8935 31.5732 23.2518 30.9693 22.78 30.24C22.1826 29.3735 21.7331 28.4137 21.45 27.4C21.1396 26.2732 20.9882 25.1087 21 23.94ZM39 23.94C39.006 22.8079 38.8546 21.6804 38.55 20.59C38.2634 19.5757 37.8106 18.6161 37.21 17.75C36.7413 17.0243 36.1029 16.4237 35.35 16L35 17.08C35.773 17.7465 36.3502 18.6107 36.67 19.58C37.1191 20.8111 37.3558 22.1096 37.37 23.42V24.08C37.3918 25.4822 37.1789 26.8781 36.74 28.21C36.4311 29.2839 35.8285 30.2502 35 31L35.35 32C36.1065 31.5732 36.7482 30.9693 37.22 30.24C37.8174 29.3735 38.2669 28.4137 38.55 27.4C38.8604 26.2732 39.0118 25.1087 39 23.94ZM10.5 18.5H9V29.5H10.5V18.5ZM13.66 21.65L13.71 22.55C13.9857 22.2112 14.3356 21.9403 14.7327 21.7582C15.1298 21.5762 15.5634 21.4878 16 21.5C17.64 21.5 18.47 22.44 18.5 24.31V29.5H16.74V24.41C16.7725 24.0118 16.6547 23.6158 16.41 23.3C16.264 23.1788 16.0943 23.0895 15.9117 23.0379C15.7292 22.9862 15.5378 22.9733 15.35 23C15.016 22.992 14.6871 23.0826 14.4044 23.2605C14.1216 23.4383 13.8975 23.6955 13.76 24V29.5H12V21.65H13.66Z" fill="white"/>
<path d="M33 21V27H27V21H33ZM35 19H25V29H35V19Z" fill="white"/>
</svg>
