<svg width="48" height="48" viewBox="0 0 48 48" fill="none" xmlns="http://www.w3.org/2000/svg">
<path fill-rule="evenodd" clip-rule="evenodd" d="M22 27.47C21.4048 27.1332 20.9109 26.6428 20.57 26.05C20.1984 25.4307 20.0014 24.7223 20 24C19.9951 23.2993 20.1745 22.6097 20.52 22C20.8659 21.3785 21.3785 20.866 22 20.52C22.6203 20.1787 23.3169 19.9996 24.025 19.9996C24.733 19.9996 25.4296 20.1787 26.05 20.52C26.7736 20.9572 27.408 21.5272 27.92 22.2L28.05 22.36L28.19 22.2C28.6838 21.5326 29.2976 20.9629 30 20.52C30.6221 20.1787 31.3203 19.9997 32.03 19.9997C32.7396 19.9997 33.4378 20.1787 34.06 20.52C34.65 20.8602 35.1398 21.35 35.48 21.94C35.8358 22.5673 36.0155 23.2791 36 24C36.0048 24.7007 35.8255 25.3904 35.48 26C35.134 26.6161 34.628 27.1272 34.0154 27.4792C33.4028 27.8313 32.7064 28.0112 32 28C31.2993 28.0049 30.6096 27.8256 30 27.48C29.284 27.0365 28.6539 26.4674 28.14 25.8L28 25.64L27.87 25.8C27.3531 26.4683 26.7196 27.0375 26 27.48C25.3904 27.8256 24.7007 28.0049 24 28C23.2976 28.0077 22.6064 27.8245 22 27.47ZM25.38 25.47C25.8539 25.1039 26.2776 24.6769 26.64 24.2L26.77 24.04L26.64 23.89C26.2801 23.4081 25.8562 22.9775 25.38 22.61C25.0384 22.3672 24.6291 22.2377 24.21 22.24C23.8848 22.2303 23.5631 22.3098 23.28 22.47C23.013 22.622 22.792 22.8431 22.64 23.11C22.4766 23.3887 22.3935 23.7071 22.4 24.03C22.3951 24.3528 22.478 24.6708 22.64 24.95C22.792 25.217 23.013 25.4381 23.28 25.59C23.5631 25.7503 23.8848 25.8298 24.21 25.82C24.6291 25.8224 25.0384 25.6929 25.38 25.45M32.82 25.59C33.0891 25.441 33.3109 25.2192 33.46 24.95C33.6219 24.6708 33.7049 24.3528 33.7 24.03C33.7064 23.7071 33.6233 23.3887 33.46 23.11C33.3109 22.8409 33.0891 22.6191 32.82 22.47C32.5368 22.3098 32.2152 22.2303 31.89 22.24C31.4708 22.2377 31.0616 22.3672 30.72 22.61C30.2438 22.9775 29.8199 23.4081 29.46 23.89L29.33 24.04L29.46 24.2C29.8224 24.6769 30.246 25.1039 30.72 25.47C31.0616 25.7129 31.4708 25.8424 31.89 25.84C32.2152 25.8498 32.5368 25.7703 32.82 25.61" fill="white"/>
<path d="M12 23H18V25H12V23Z" fill="white"/>
</svg>
