<svg width="48" height="48" viewBox="0 0 48 48" fill="none" xmlns="http://www.w3.org/2000/svg">
<path d="M28.36 22.07H27.11V25.9C27.0917 26.1219 27.148 26.3436 27.27 26.53C27.3592 26.605 27.4631 26.6606 27.575 26.6934C27.6869 26.7261 27.8044 26.7351 27.92 26.7199C28.1248 26.7208 28.3292 26.7007 28.53 26.66V28.27C28.119 28.3983 27.6906 28.4624 27.26 28.4599C26.954 28.5029 26.6423 28.4744 26.3492 28.3767C26.0561 28.279 25.7896 28.1147 25.5707 27.8967C25.3517 27.6788 25.1863 27.413 25.0872 27.1204C24.9882 26.8277 24.9584 26.5161 25 26.2099V22.07H23V28.3799H20.85V22.07H19.55V20.45H28.36V22.07Z" fill="white"/>
</svg>
