<?xml version="1.0" encoding="UTF-8"?>
<svg version="1.1" xmlns="http://www.w3.org/2000/svg" width="48" height="48">
<path d="M0 0 C3.3 0 6.6 0 10 0 C10 3.3 10 6.6 10 10 C6.7 10 3.4 10 0 10 C0 6.7 0 3.4 0 0 Z M2 2 C2 3.98 2 5.96 2 8 C3.98 8 5.96 8 8 8 C8 6.02 8 4.04 8 2 C6.02 2 4.04 2 2 2 Z " fill="#FFFFFF" transform="translate(15,19)"/>
<path d="M0 0 C1.98 0 3.96 0 6 0 C6 1.98 6 3.96 6 6 C4.02 6 2.04 6 0 6 C0 4.02 0 2.04 0 0 Z M2 2 C2 2.66 2 3.32 2 4 C2.66 4 3.32 4 4 4 C4 3.34 4 2.68 4 2 C3.34 2 2.68 2 2 2 Z " fill="#FFFFFF" transform="translate(27,15)"/>
</svg>
