<svg width="48" height="48" viewBox="0 0 48 48" fill="none" xmlns="http://www.w3.org/2000/svg">
<path d="M18.39 22.44C18.1383 22.4028 17.8844 22.3827 17.63 22.38C17.317 22.339 16.9989 22.3947 16.7183 22.5394C16.4377 22.6842 16.2081 22.9112 16.06 23.19V28.38H13.94V20.45H15.94L16 21.4C16.1647 21.0732 16.4158 20.7978 16.7261 20.6038C17.0365 20.4099 17.3941 20.3048 17.76 20.3C17.9837 20.3008 18.2061 20.3345 18.42 20.4L18.39 22.44ZM23.78 28.38C23.675 28.1516 23.6043 27.909 23.57 27.66C23.3217 27.9432 23.0132 28.1673 22.6672 28.3161C22.3212 28.4649 21.9464 28.5346 21.57 28.52C20.8652 28.5477 20.176 28.3084 19.64 27.85C19.3951 27.6408 19.1998 27.3797 19.0684 27.0857C18.9369 26.7916 18.8726 26.472 18.88 26.15C18.8616 25.7748 18.937 25.401 19.0994 25.0622C19.2617 24.7235 19.506 24.4306 19.81 24.21C20.6209 23.7164 21.562 23.4794 22.51 23.53H23.51V23.08C23.5285 22.7622 23.4287 22.4487 23.23 22.2C23.1153 22.0826 22.976 21.9921 22.8221 21.9351C22.6682 21.878 22.5035 21.8558 22.34 21.87C22.0379 21.853 21.7397 21.9453 21.5 22.13C21.4002 22.2163 21.3213 22.3241 21.2693 22.4454C21.2174 22.5667 21.1937 22.6982 21.2 22.83H19.05C19.0485 22.3707 19.1997 21.9239 19.48 21.56C19.7866 21.1476 20.2022 20.829 20.68 20.64C21.2312 20.4106 21.823 20.2949 22.42 20.3C23.2606 20.2568 24.0884 20.5197 24.75 21.04C25.0392 21.2986 25.2667 21.6189 25.4155 21.9771C25.5644 22.3354 25.6308 22.7226 25.61 23.11V26.54C25.5802 27.1263 25.6863 27.7115 25.92 28.25V28.38H23.78ZM22 26.9C22.3028 26.9018 22.6014 26.8298 22.87 26.69C23.1174 26.5689 23.3203 26.373 23.45 26.13V24.77H22.66C21.6 24.77 21.04 25.14 20.97 25.87V26C20.9651 26.1238 20.9876 26.2473 21.0361 26.3614C21.0845 26.4755 21.1575 26.5775 21.25 26.66C21.4614 26.8307 21.7288 26.9162 22 26.9ZM26.9 24.35C26.8357 23.2856 27.1278 22.23 27.73 21.35C27.9973 21.0068 28.3428 20.7324 28.7377 20.5497C29.1325 20.3671 29.5653 20.2815 30 20.3C30.3633 20.2923 30.7236 20.3665 31.0542 20.5172C31.3849 20.6678 31.6774 20.8909 31.91 21.17V17.12H34V28.38H32.13L32.03 27.53C31.7971 27.8405 31.4952 28.0925 31.148 28.2661C30.8009 28.4396 30.4181 28.53 30.03 28.53C29.5955 28.5412 29.1648 28.447 28.7747 28.2555C28.3846 28.0639 28.0467 27.7807 27.79 27.43C27.1633 26.5288 26.8506 25.4465 26.9 24.35ZM29.02 24.51C28.9849 25.1055 29.1202 25.6986 29.41 26.22C29.5281 26.4107 29.6953 26.5661 29.8941 26.6699C30.093 26.7737 30.316 26.8221 30.54 26.81C30.825 26.8307 31.1096 26.7644 31.356 26.6197C31.6025 26.4751 31.7992 26.2589 31.92 26V22.85C31.8071 22.5844 31.6149 22.3601 31.3696 22.208C31.1244 22.0558 30.8381 21.9832 30.55 22C29.5167 22 29 22.8367 29 24.51H29.02Z" fill="white"/>
</svg>
