<svg width="48" height="48" viewBox="0 0 48 48" fill="none" xmlns="http://www.w3.org/2000/svg">
<path d="M12.42 26C12.4201 25.8896 12.3892 25.7815 12.3308 25.6878C12.2725 25.5941 12.1891 25.5186 12.09 25.47C11.7483 25.2903 11.3805 25.1654 11 25.1C9.37 24.76 8.55 24.1 8.55 23.02C8.54685 22.7231 8.61408 22.4296 8.74618 22.1637C8.87828 21.8978 9.07149 21.6669 9.31 21.49C9.88436 21.0581 10.5924 20.8422 11.31 20.88C12.0605 20.8384 12.8024 21.0574 13.41 21.5C13.6583 21.6851 13.8586 21.9269 13.9943 22.2053C14.13 22.4836 14.1971 22.7904 14.19 23.1H12.35C12.3544 22.9789 12.3345 22.8581 12.2916 22.7448C12.2487 22.6314 12.1835 22.5278 12.1 22.44C11.9916 22.3479 11.8658 22.2784 11.7302 22.2354C11.5945 22.1925 11.4517 22.1771 11.31 22.19C11.0528 22.1735 10.798 22.2478 10.59 22.4C10.5091 22.4621 10.4443 22.5425 10.4008 22.6347C10.3573 22.7269 10.3365 22.8281 10.34 22.93C10.3391 23.0292 10.3646 23.1268 10.4138 23.2129C10.463 23.2989 10.5341 23.3704 10.62 23.42C10.9323 23.5857 11.2704 23.6973 11.62 23.75C12.0101 23.822 12.3944 23.9223 12.77 24.05C13.1852 24.1507 13.5547 24.3876 13.8193 24.723C14.084 25.0584 14.2286 25.4728 14.23 25.9C14.2337 26.201 14.1614 26.4981 14.0198 26.7638C13.8783 27.0295 13.6719 27.2552 13.42 27.42C12.8063 27.8303 12.0775 28.0335 11.34 28C10.8132 28.0128 10.2903 27.9069 9.81 27.69C9.40707 27.5052 9.06156 27.215 8.81 26.85C8.56052 26.515 8.42711 26.1077 8.43 25.69H10.16C10.1639 25.8343 10.199 25.9761 10.2628 26.1055C10.3267 26.235 10.4178 26.3491 10.53 26.44C10.7926 26.6246 11.1094 26.7161 11.43 26.7C11.7078 26.7176 11.9841 26.6477 12.22 26.5C12.2888 26.4371 12.3425 26.3594 12.3771 26.2729C12.4117 26.1863 12.4264 26.093 12.42 26ZM18.55 28C18.0994 28.018 17.6497 27.9459 17.2273 27.7879C16.8049 27.6299 16.4182 27.3893 16.09 27.08C15.7708 26.7554 15.5217 26.3687 15.3583 25.9438C15.1948 25.5188 15.1205 25.0649 15.14 24.61V24.43C15.1268 23.7905 15.2638 23.1569 15.54 22.58C15.7879 22.0603 16.1802 21.6228 16.67 21.32C17.1795 21.0232 17.7604 20.8711 18.35 20.88C18.7609 20.8588 19.1715 20.9274 19.5532 21.0811C19.9349 21.2348 20.2785 21.4699 20.56 21.77C21.1402 22.4767 21.4298 23.3776 21.37 24.29V25H17C17.0418 25.414 17.2339 25.7982 17.54 26.08C17.8501 26.3557 18.2556 26.4992 18.67 26.48C18.988 26.493 19.3045 26.4299 19.5932 26.296C19.8819 26.1621 20.1345 25.9612 20.33 25.71L21.23 26.71C20.9454 27.1086 20.5585 27.423 20.11 27.62C19.6249 27.8615 19.0918 27.9914 18.55 28ZM18.34 22.36C18.1738 22.3543 18.0083 22.3844 17.8548 22.4482C17.7012 22.512 17.5632 22.6081 17.45 22.73C17.1993 23.0316 17.0428 23.4002 17 23.79H19.55V23.64C19.5615 23.2934 19.4439 22.9549 19.22 22.69C19.1034 22.5781 18.9653 22.4912 18.814 22.4344C18.6627 22.3777 18.5014 22.3524 18.34 22.36ZM25.27 26.52C25.5722 26.5356 25.869 26.4355 26.1 26.24C26.2036 26.1465 26.2865 26.0324 26.3433 25.9049C26.4001 25.7775 26.4297 25.6395 26.43 25.5H28.15C28.147 25.954 28.0152 26.3979 27.77 26.78C27.5252 27.1657 27.1793 27.477 26.77 27.68C26.3136 27.9054 25.8088 28.0152 25.3 28C24.8725 28.018 24.4461 27.9443 24.0494 27.7839C23.6527 27.6235 23.2949 27.3801 23 27.07C22.3983 26.3458 22.0944 25.4199 22.15 24.48V24.36C22.1048 23.4397 22.4083 22.5363 23 21.83C23.2953 21.5137 23.6556 21.265 24.056 21.101C24.4565 20.9371 24.8877 20.8617 25.32 20.88C26.0792 20.8416 26.8229 21.1039 27.39 21.61C27.6503 21.8621 27.855 22.1657 27.9911 22.5015C28.1271 22.8373 28.1915 23.1979 28.18 23.56H26.43C26.4311 23.2392 26.3136 22.9294 26.1 22.69C25.9909 22.5792 25.8598 22.4926 25.7151 22.4358C25.5703 22.3789 25.4153 22.3531 25.26 22.36C25.0666 22.3421 24.8718 22.3763 24.696 22.4589C24.5202 22.5415 24.3697 22.6697 24.26 22.83C24.0271 23.2969 23.9367 23.8221 24 24.34V24.53C23.9571 25.0614 24.0719 25.5936 24.33 26.06C24.4362 26.2087 24.5777 26.3286 24.7418 26.409C24.9059 26.4893 25.0874 26.5274 25.27 26.52Z" fill="white"/>
<path d="M38 22V26H34V22H38ZM40 20H32V28H40V20Z" fill="white"/>
</svg>
