<svg width="48" height="48" viewBox="0 0 48 48" fill="none" xmlns="http://www.w3.org/2000/svg">
<path d="M9.42 26C9.42007 25.8896 9.38918 25.7815 9.33085 25.6878C9.27251 25.5941 9.18907 25.5186 9.09 25.47C8.74832 25.2902 8.38049 25.1654 8 25.1C6.37 24.76 5.55 24.1 5.55 23.02C5.54684 22.7231 5.61407 22.4296 5.74617 22.1637C5.87827 21.8977 6.07149 21.6669 6.31 21.49C6.88436 21.0581 7.59239 20.8422 8.31 20.88C9.06054 20.8384 9.80241 21.0574 10.41 21.5C10.6583 21.6851 10.8586 21.9269 10.9943 22.2053C11.13 22.4836 11.1971 22.7904 11.19 23.1H9.35C9.35438 22.9789 9.33452 22.8581 9.29159 22.7448C9.24865 22.6314 9.18352 22.5278 9.1 22.44C8.99155 22.3479 8.86583 22.2783 8.73018 22.2354C8.59453 22.1925 8.45168 22.177 8.31 22.19C8.05281 22.1735 7.79799 22.2478 7.59 22.4C7.50913 22.462 7.44426 22.5425 7.40077 22.6347C7.35729 22.7269 7.33645 22.8281 7.34 22.93C7.33911 23.0291 7.36456 23.1268 7.41376 23.2128C7.46295 23.2989 7.53412 23.3704 7.62 23.42C7.9323 23.5857 8.27042 23.6973 8.62 23.75C9.0101 23.822 9.39445 23.9222 9.77 24.05C10.1852 24.1506 10.5547 24.3876 10.8193 24.723C11.084 25.0583 11.2286 25.4728 11.23 25.9C11.2337 26.201 11.1614 26.4981 11.0198 26.7638C10.8782 27.0295 10.6719 27.2552 10.42 27.42C9.80071 27.8344 9.06419 28.0378 8.32 28C7.79319 28.0128 7.27026 27.9069 6.79 27.69C6.38707 27.5052 6.04156 27.215 5.79 26.85C5.54052 26.515 5.4071 26.1077 5.41 25.69H7.09C7.09388 25.8343 7.12896 25.9761 7.19283 26.1055C7.2567 26.235 7.34784 26.3491 7.46 26.44C7.72263 26.6246 8.0394 26.7161 8.36 26.7C8.63777 26.7176 8.91408 26.6477 9.15 26.5C9.2316 26.4442 9.29868 26.3697 9.34565 26.2827C9.39262 26.1958 9.41811 26.0988 9.42 26ZM15.42 28C14.5234 28.0256 13.6532 27.6947 13 27.08C12.6717 26.7597 12.4134 26.3748 12.2413 25.9497C12.0692 25.5246 11.987 25.0684 12 24.61V24.43C11.9868 23.7905 12.1238 23.1569 12.4 22.58C12.6479 22.0602 13.0402 21.6228 13.53 21.32C14.0395 21.0232 14.6204 20.871 15.21 20.88C15.6209 20.8588 16.0315 20.9274 16.4132 21.0811C16.7949 21.2348 17.1385 21.4699 17.42 21.77C18.0002 22.4767 18.2898 23.3776 18.23 24.29V25H13.87C13.9118 25.4139 14.1039 25.7982 14.41 26.08C14.7211 26.3538 15.1259 26.4971 15.54 26.48C15.858 26.493 16.1745 26.4299 16.4632 26.296C16.7519 26.1621 17.0045 25.9612 17.2 25.71L18.1 26.71C17.8154 27.1086 17.4285 27.423 16.98 27.62C16.4949 27.8615 15.9618 27.9914 15.42 28ZM15.21 22.36C15.0438 22.3543 14.8783 22.3843 14.7247 22.4482C14.5712 22.512 14.4332 22.6081 14.32 22.73C14.0765 23.0339 13.9271 23.4023 13.89 23.79H16.44V23.64C16.4515 23.2934 16.3339 22.9549 16.11 22.69C15.9911 22.5756 15.8496 22.4872 15.6947 22.4304C15.5398 22.3736 15.3747 22.3496 15.21 22.36ZM22 26.52C22.3022 26.5356 22.599 26.4355 22.83 26.24C22.9336 26.1465 23.0165 26.0324 23.0733 25.9049C23.1301 25.7775 23.1597 25.6395 23.16 25.5H24.88C24.877 25.954 24.7452 26.3979 24.5 26.78C24.2576 27.1678 23.9111 27.4796 23.5 27.68C23.0346 27.9102 22.5189 28.0202 22 28C21.5692 28.0209 21.1389 27.9486 20.7385 27.7881C20.3382 27.6276 19.9771 27.3827 19.68 27.07C19.0783 26.3458 18.7744 25.4199 18.83 24.48V24.36C18.782 23.4411 19.0819 22.5377 19.67 21.83C19.9664 21.5124 20.3283 21.2629 20.7306 21.0989C21.1329 20.9349 21.566 20.8602 22 20.88C22.7591 20.8416 23.5028 21.1039 24.07 21.61C24.3303 21.862 24.535 22.1657 24.6711 22.5015C24.8071 22.8373 24.8715 23.1979 24.86 23.56H23.17C23.1711 23.2392 23.0536 22.9293 22.84 22.69C22.7309 22.5792 22.5998 22.4926 22.455 22.4358C22.3103 22.3789 22.1553 22.3531 22 22.36C21.8066 22.3421 21.6118 22.3763 21.436 22.4589C21.2602 22.5415 21.1097 22.6696 21 22.83C20.747 23.2908 20.6357 23.8161 20.68 24.34V24.53C20.6347 25.0603 20.7459 25.5923 21 26.06C21.1116 26.2177 21.2628 26.3433 21.4383 26.4241C21.6139 26.5048 21.8076 26.5379 22 26.52ZM27.59 21.76C27.8078 21.4811 28.0874 21.2565 28.4066 21.1038C28.7259 20.9511 29.0762 20.8745 29.43 20.88C30.92 20.88 31.67 21.75 31.7 23.48V27.88H29.86V23.53C29.8879 23.2159 29.7989 22.9025 29.61 22.65C29.4948 22.5479 29.3601 22.4704 29.2139 22.4223C29.0677 22.3741 28.9133 22.3563 28.76 22.37C28.527 22.3569 28.2948 22.4077 28.0886 22.517C27.8824 22.6262 27.71 22.7898 27.59 22.99V27.88H25.76V18.12H27.59V21.76Z" fill="white"/>
<path d="M41 22V26H37V22H41ZM43 20H35V28H43V20Z" fill="white"/>
</svg>
