<svg width="48" height="48" viewBox="0 0 48 48" fill="none" xmlns="http://www.w3.org/2000/svg">
<path d="M32 19H30V18H32V19ZM34.87 20.43H33.73V16.84L32.37 17.28V16.28L34.74 15.39H34.87V20.43ZM8.42 26C8.42007 25.8896 8.38918 25.7815 8.33085 25.6878C8.27252 25.5941 8.18907 25.5186 8.09 25.47C7.74832 25.2903 7.38049 25.1654 7 25.1C5.37 24.76 4.55 24.1 4.55 23.02C4.54685 22.7231 4.61408 22.4296 4.74618 22.1637C4.87828 21.8978 5.07149 21.6669 5.31 21.49C5.88436 21.0581 6.59239 20.8422 7.31 20.88C8.06055 20.8384 8.80242 21.0574 9.41 21.5C9.65827 21.6851 9.85864 21.9269 9.99433 22.2053C10.13 22.4836 10.1971 22.7904 10.19 23.1H8.35C8.35438 22.9789 8.33452 22.8581 8.29159 22.7448C8.24866 22.6315 8.18352 22.5278 8.1 22.44C7.99156 22.3479 7.86583 22.2784 7.73018 22.2354C7.59453 22.1925 7.45169 22.1771 7.31 22.19C7.05281 22.1735 6.79799 22.2478 6.59 22.4C6.50914 22.4621 6.44426 22.5425 6.40078 22.6347C6.35729 22.7269 6.33646 22.8281 6.34 22.93C6.33911 23.0292 6.36457 23.1268 6.41376 23.2129C6.46296 23.299 6.53413 23.3704 6.62 23.42C6.9323 23.5857 7.27042 23.6973 7.62 23.75C8.0101 23.822 8.39445 23.9223 8.77 24.05C9.1852 24.1507 9.55467 24.3876 9.81934 24.723C10.084 25.0584 10.2286 25.4728 10.23 25.9C10.2337 26.201 10.1614 26.4982 10.0198 26.7638C9.87825 27.0295 9.67194 27.2552 9.42 27.42C8.80072 27.8344 8.06419 28.0379 7.32 28C6.7932 28.0128 6.27026 27.9069 5.79 27.69C5.38707 27.5052 5.04156 27.215 4.79 26.85C4.54052 26.515 4.40711 26.1077 4.41 25.69H6.09C6.09388 25.8343 6.12896 25.9761 6.19283 26.1055C6.2567 26.235 6.34785 26.3491 6.46 26.44C6.72264 26.6246 7.03941 26.7161 7.36 26.7C7.63777 26.7177 7.91408 26.6477 8.15 26.5C8.2316 26.4442 8.29869 26.3697 8.34565 26.2828C8.39262 26.1958 8.41811 26.0988 8.42 26ZM14.55 28C14.0994 28.018 13.6497 27.9459 13.2273 27.7879C12.8049 27.63 12.4182 27.3893 12.09 27.08C11.7708 26.7554 11.5217 26.3687 11.3583 25.9438C11.1948 25.5188 11.1205 25.0649 11.14 24.61V24.43C11.1268 23.7906 11.2638 23.1569 11.54 22.58C11.7879 22.0603 12.1802 21.6229 12.67 21.32C13.1795 21.0232 13.7604 20.8711 14.35 20.88C14.7609 20.8588 15.1715 20.9274 15.5532 21.0811C15.9349 21.2348 16.2785 21.4699 16.56 21.77C17.1402 22.4767 17.4298 23.3776 17.37 24.29V25H13C13.0418 25.414 13.2339 25.7982 13.54 26.08C13.8501 26.3557 14.2556 26.4992 14.67 26.48C14.988 26.493 15.3045 26.4299 15.5932 26.296C15.8819 26.1621 16.1345 25.9612 16.33 25.71L17.23 26.71C16.9454 27.1087 16.5585 27.4231 16.11 27.62C15.6249 27.8615 15.0918 27.9914 14.55 28ZM14.34 22.36C14.1738 22.3543 14.0083 22.3844 13.8548 22.4482C13.7012 22.512 13.5632 22.6081 13.45 22.73C13.1993 23.0316 13.0428 23.4002 13 23.79H15.55V23.64C15.5615 23.2934 15.4439 22.9549 15.22 22.69C15.1034 22.5781 14.9653 22.4912 14.814 22.4345C14.6627 22.3777 14.5014 22.3524 14.34 22.36ZM21.27 26.52C21.5722 26.5356 21.869 26.4355 22.1 26.24C22.2036 26.1465 22.2865 26.0324 22.3433 25.9049C22.4001 25.7775 22.4297 25.6396 22.43 25.5H24.15C24.147 25.954 24.0152 26.3979 23.77 26.78C23.5252 27.1658 23.1793 27.477 22.77 27.68C22.3136 27.9054 21.8088 28.0153 21.3 28C20.8725 28.018 20.4461 27.9443 20.0494 27.7839C19.6527 27.6235 19.2949 27.3801 19 27.07C18.3983 26.3458 18.0944 25.4199 18.15 24.48V24.36C18.1048 23.4398 18.4083 22.5363 19 21.83C19.2953 21.5137 19.6556 21.265 20.056 21.1011C20.4565 20.9371 20.8877 20.8617 21.32 20.88C22.0792 20.8417 22.8229 21.1039 23.39 21.61C23.6503 21.8621 23.855 22.1657 23.9911 22.5015C24.1271 22.8373 24.1915 23.1979 24.18 23.56H22.43C22.4311 23.2392 22.3136 22.9294 22.1 22.69C21.9909 22.5793 21.8598 22.4926 21.7151 22.4358C21.5703 22.3789 21.4153 22.3531 21.26 22.36C21.0666 22.3421 20.8718 22.3763 20.696 22.4589C20.5202 22.5415 20.3697 22.6697 20.26 22.83C20.0271 23.297 19.9367 23.8221 20 24.34V24.53C19.9571 25.0614 20.0719 25.5936 20.33 26.06C20.4362 26.2087 20.5777 26.3287 20.7418 26.409C20.9059 26.4893 21.0874 26.5274 21.27 26.52ZM27 21.76C27.2179 21.4811 27.4974 21.2565 27.8166 21.1039C28.1359 20.9512 28.4862 20.8746 28.84 20.88C30.33 20.88 31.08 21.75 31.11 23.48V27.88H29.25V23.53C29.2779 23.2159 29.1889 22.9025 29 22.65C28.8849 22.5479 28.7501 22.4704 28.6039 22.4223C28.4577 22.3741 28.3033 22.3563 28.15 22.37C27.9193 22.3616 27.6906 22.4157 27.4882 22.5266C27.2858 22.6375 27.1171 22.8011 27 23V27.89H25.15V18.12H27V21.76Z" fill="white"/>
<path d="M42 22V26H38V22H42ZM44 20H36V28H44V20Z" fill="white"/>
</svg>
