<svg width="48" height="48" viewBox="0 0 48 48" fill="none" xmlns="http://www.w3.org/2000/svg">
<path d="M14.42 26C14.4201 25.8897 14.3892 25.7815 14.3309 25.6878C14.2725 25.5941 14.1891 25.5187 14.09 25.47C13.7483 25.2903 13.3805 25.1654 13 25.1C11.37 24.76 10.55 24.1 10.55 23.02C10.5469 22.7231 10.6141 22.4297 10.7462 22.1637C10.8783 21.8978 11.0715 21.6669 11.31 21.49C11.8844 21.0582 12.5924 20.8422 13.31 20.88C14.0606 20.8384 14.8024 21.0574 15.41 21.5C15.6583 21.6851 15.8586 21.9269 15.9943 22.2053C16.13 22.4836 16.1971 22.7904 16.19 23.1H14.35C14.3544 22.9789 14.3345 22.8581 14.2916 22.7448C14.2487 22.6315 14.1835 22.5278 14.1 22.44C13.9916 22.3479 13.8658 22.2784 13.7302 22.2355C13.5945 22.1925 13.4517 22.1771 13.31 22.19C13.0528 22.1735 12.798 22.2478 12.59 22.4C12.5091 22.4621 12.4443 22.5425 12.4008 22.6347C12.3573 22.7269 12.3365 22.8282 12.34 22.93C12.3391 23.0292 12.3646 23.1268 12.4138 23.2129C12.463 23.299 12.5341 23.3705 12.62 23.42C12.9323 23.5857 13.2704 23.6973 13.62 23.75C14.0101 23.822 14.3945 23.9223 14.77 24.05C15.1852 24.1507 15.5547 24.3876 15.8194 24.723C16.084 25.0584 16.2286 25.4728 16.23 25.9C16.2337 26.2011 16.1614 26.4982 16.0198 26.7639C15.8783 27.0295 15.672 27.2552 15.42 27.42C14.8063 27.8303 14.0775 28.0335 13.34 28C12.8132 28.0129 12.2903 27.9069 11.81 27.69C11.4071 27.5052 11.0616 27.215 10.81 26.85C10.5605 26.515 10.4271 26.1077 10.43 25.69H12.16C12.1639 25.8343 12.199 25.9761 12.2628 26.1056C12.3267 26.235 12.4179 26.3491 12.53 26.44C12.7926 26.6246 13.1094 26.7161 13.43 26.7C13.7078 26.7177 13.9841 26.6477 14.22 26.5C14.2888 26.4371 14.3425 26.3594 14.3771 26.2729C14.4118 26.1863 14.4264 26.093 14.42 26ZM17.38 19.23C17.3755 19.1042 17.3972 18.9787 17.4437 18.8617C17.4901 18.7446 17.5604 18.6385 17.65 18.55C17.7498 18.456 17.8679 18.3835 17.9969 18.3371C18.126 18.2906 18.2632 18.2712 18.4 18.28C18.5369 18.2712 18.6741 18.2906 18.8031 18.3371C18.9321 18.3835 19.0502 18.456 19.15 18.55C19.243 18.6365 19.3161 18.742 19.3644 18.8594C19.4128 18.9768 19.4351 19.1032 19.43 19.23C19.4353 19.3584 19.413 19.4863 19.3647 19.6053C19.3164 19.7244 19.2432 19.8317 19.15 19.92C18.9416 20.0979 18.6738 20.1907 18.4 20.18C18.1292 20.1912 17.8644 20.0981 17.66 19.92C17.5668 19.8317 17.4936 19.7244 17.4453 19.6053C17.397 19.4863 17.3747 19.3584 17.38 19.23ZM19.32 27.88H17.48V21H19.32V27.88ZM22.52 21L22.58 21.79C22.8163 21.4888 23.121 21.2483 23.4688 21.0883C23.8166 20.9283 24.1975 20.8535 24.58 20.87C24.8824 20.8461 25.1864 20.8913 25.4688 21.0021C25.7512 21.113 26.0046 21.2867 26.21 21.51C26.6072 22.0684 26.8013 22.746 26.76 23.43V27.87H24.89V23.47C24.9182 23.1652 24.8287 22.8611 24.64 22.62C24.4019 22.4249 24.0965 22.3315 23.79 22.36C23.5545 22.3516 23.3212 22.4088 23.1163 22.5254C22.9115 22.6419 22.7431 22.8132 22.63 23.02V27.87H20.8V21H22.52Z" fill="white"/>
<path d="M36 22V26H32V22H36ZM38 20H30V28H38V20Z" fill="white"/>
</svg>
