<svg width="48" height="48" viewBox="0 0 48 48" fill="none" xmlns="http://www.w3.org/2000/svg">
<path d="M27 19H25V18H27V19ZM29.87 20.43H28.73V16.84L27.37 17.28V16.28L29.74 15.39H29.87V20.43ZM11.42 26C11.4201 25.8896 11.3892 25.7815 11.3308 25.6878C11.2725 25.5941 11.1891 25.5186 11.09 25.47C10.7483 25.2903 10.3805 25.1654 9.99999 25.1C8.36999 24.76 7.54999 24.1 7.54999 23.02C7.54684 22.7231 7.61407 22.4296 7.74617 22.1637C7.87827 21.8978 8.07149 21.6669 8.30999 21.49C8.88435 21.0581 9.59238 20.8422 10.31 20.88C11.0605 20.8384 11.8024 21.0574 12.41 21.5C12.6583 21.6851 12.8586 21.9269 12.9943 22.2053C13.13 22.4836 13.1971 22.7904 13.19 23.1H11.35C11.3544 22.9789 11.3345 22.8581 11.2916 22.7448C11.2487 22.6315 11.1835 22.5278 11.1 22.44C10.9915 22.3479 10.8658 22.2784 10.7302 22.2354C10.5945 22.1925 10.4517 22.1771 10.31 22.19C10.0528 22.1735 9.79798 22.2478 9.58999 22.4C9.50913 22.4621 9.44425 22.5425 9.40077 22.6347C9.35729 22.7269 9.33645 22.8281 9.33999 22.93C9.33911 23.0292 9.36456 23.1268 9.41375 23.2129C9.46295 23.299 9.53412 23.3704 9.61999 23.42C9.9323 23.5857 10.2704 23.6973 10.62 23.75C11.0101 23.822 11.3944 23.9223 11.77 24.05C12.1852 24.1507 12.5547 24.3876 12.8193 24.723C13.084 25.0584 13.2286 25.4728 13.23 25.9C13.2337 26.201 13.1614 26.4982 13.0198 26.7638C12.8782 27.0295 12.6719 27.2552 12.42 27.42C11.8063 27.8303 11.0774 28.0335 10.34 28C9.81319 28.0128 9.29026 27.9069 8.80999 27.69C8.40707 27.5052 8.06156 27.215 7.80999 26.85C7.56051 26.515 7.4271 26.1077 7.42999 25.69H9.08999C9.09387 25.8343 9.12896 25.9761 9.19283 26.1055C9.2567 26.235 9.34784 26.3491 9.45999 26.44C9.72263 26.6246 10.0394 26.7161 10.36 26.7C10.6378 26.7177 10.9141 26.6477 11.15 26.5C11.2316 26.4442 11.2987 26.3697 11.3456 26.2828C11.3926 26.1958 11.4181 26.0988 11.42 26ZM14.38 19.23C14.3755 19.1042 14.3972 18.9787 14.4436 18.8617C14.4901 18.7446 14.5604 18.6385 14.65 18.55C14.7498 18.456 14.8679 18.3835 14.9969 18.3371C15.126 18.2906 15.2631 18.2712 15.4 18.28C15.5368 18.2712 15.674 18.2906 15.8031 18.3371C15.9321 18.3835 16.0502 18.456 16.15 18.55C16.2429 18.6365 16.3161 18.742 16.3644 18.8594C16.4128 18.9767 16.4351 19.1032 16.43 19.23C16.4353 19.3583 16.413 19.4863 16.3647 19.6053C16.3164 19.7243 16.2432 19.8316 16.15 19.92C15.9416 20.0979 15.6738 20.1907 15.4 20.18C15.1292 20.1912 14.8643 20.0981 14.66 19.92C14.5668 19.8316 14.4936 19.7243 14.4453 19.6053C14.397 19.4863 14.3747 19.3583 14.38 19.23ZM16.32 27.88H14.48V21H16.32V27.88ZM19.52 21L19.58 21.79C19.8163 21.4888 20.121 21.2483 20.4688 21.0883C20.8166 20.9283 21.1975 20.8535 21.58 20.87C21.8824 20.8461 22.1864 20.8913 22.4688 21.0021C22.7512 21.113 23.0046 21.2867 23.21 21.51C23.6072 22.0684 23.8013 22.746 23.76 23.43V27.87H21.89V23.47C21.9181 23.1652 21.8287 22.8611 21.64 22.62C21.4019 22.4249 21.0965 22.3315 20.79 22.36C20.5544 22.3515 20.3212 22.4088 20.1163 22.5254C19.9114 22.6419 19.7431 22.8132 19.63 23.02V27.87H17.8V21H19.52Z" fill="white"/>
<path d="M38 22V26H34V22H38ZM40 20H32V28H40V20Z" fill="white"/>
</svg>
