<svg width="48" height="48" viewBox="0 0 48 48" fill="none" xmlns="http://www.w3.org/2000/svg">
<path d="M30 19H28V18H30V19ZM32.87 20.43H31.73V16.84L30.37 17.28V16.28L32.74 15.39H32.87V20.43ZM9.42 26C9.42007 25.8896 9.38919 25.7815 9.33085 25.6878C9.27252 25.5941 9.18908 25.5186 9.09 25.47C8.74833 25.2903 8.3805 25.1654 8 25.1C6.37 24.76 5.55 24.1 5.55 23.02C5.54685 22.7231 5.61408 22.4296 5.74618 22.1637C5.87828 21.8978 6.0715 21.6669 6.31 21.49C6.88436 21.0581 7.59239 20.8422 8.31 20.88C9.06055 20.8384 9.80242 21.0574 10.41 21.5C10.6583 21.6851 10.8586 21.9269 10.9943 22.2053C11.13 22.4836 11.1971 22.7904 11.19 23.1H9.35C9.35438 22.9789 9.33452 22.8581 9.29159 22.7448C9.24866 22.6315 9.18353 22.5278 9.1 22.44C8.99156 22.3479 8.86583 22.2784 8.73019 22.2354C8.59454 22.1925 8.45169 22.1771 8.31 22.19C8.05281 22.1735 7.79799 22.2478 7.59 22.4C7.50914 22.4621 7.44426 22.5425 7.40078 22.6347C7.3573 22.7269 7.33646 22.8281 7.34 22.93C7.33912 23.0292 7.36457 23.1268 7.41377 23.2129C7.46296 23.299 7.53413 23.3704 7.62 23.42C7.93231 23.5857 8.27043 23.6973 8.62 23.75C9.0101 23.822 9.39445 23.9223 9.77 24.05C10.1852 24.1507 10.5547 24.3876 10.8193 24.723C11.084 25.0584 11.2286 25.4728 11.23 25.9C11.2337 26.201 11.1614 26.4982 11.0198 26.7638C10.8783 27.0295 10.6719 27.2552 10.42 27.42C9.80072 27.8344 9.0642 28.0379 8.32 28C7.7932 28.0128 7.27027 27.9069 6.79 27.69C6.38708 27.5052 6.04157 27.215 5.79 26.85C5.54052 26.515 5.40711 26.1077 5.41 25.69H7.09C7.09389 25.8343 7.12897 25.9761 7.19284 26.1055C7.25671 26.235 7.34785 26.3491 7.46 26.44C7.72264 26.6246 8.03941 26.7161 8.36 26.7C8.63778 26.7177 8.91408 26.6477 9.15 26.5C9.23161 26.4442 9.29869 26.3697 9.34566 26.2828C9.39263 26.1958 9.41812 26.0988 9.42 26ZM12.38 19.23C12.3755 19.1042 12.3972 18.9787 12.4437 18.8617C12.4901 18.7446 12.5604 18.6385 12.65 18.55C12.7498 18.456 12.8679 18.3835 12.9969 18.3371C13.126 18.2906 13.2632 18.2712 13.4 18.28C13.5368 18.2712 13.674 18.2906 13.8031 18.3371C13.9321 18.3835 14.0502 18.456 14.15 18.55C14.243 18.6365 14.3161 18.742 14.3644 18.8594C14.4128 18.9767 14.4351 19.1032 14.43 19.23C14.4353 19.3583 14.413 19.4863 14.3647 19.6053C14.3164 19.7243 14.2432 19.8316 14.15 19.92C13.9416 20.0979 13.6738 20.1907 13.4 20.18C13.1292 20.1912 12.8644 20.0981 12.66 19.92C12.5668 19.8316 12.4936 19.7243 12.4453 19.6053C12.397 19.4863 12.3747 19.3583 12.38 19.23ZM14.32 27.88H12.48V21H14.32V27.88ZM17.52 21L17.58 21.79C17.8163 21.4888 18.121 21.2483 18.4688 21.0883C18.8166 20.9283 19.1975 20.8535 19.58 20.87C19.8824 20.8461 20.1864 20.8913 20.4688 21.0021C20.7512 21.113 21.0046 21.2867 21.21 21.51C21.6072 22.0684 21.8013 22.746 21.76 23.43V27.87H19.89V23.47C19.9181 23.1652 19.8287 22.8611 19.64 22.62C19.4019 22.4249 19.0965 22.3315 18.79 22.36C18.5545 22.3515 18.3212 22.4088 18.1163 22.5254C17.9115 22.6419 17.7431 22.8132 17.63 23.02V27.87H15.8V21H17.52ZM24.91 21.76C25.1247 21.4802 25.4022 21.2547 25.7201 21.1018C26.038 20.949 26.3873 20.873 26.74 20.88C28.23 20.88 28.99 21.75 29.01 23.48V27.88H27.17V23.53C27.1979 23.2159 27.1089 22.9025 26.92 22.65C26.8049 22.5479 26.6701 22.4704 26.5239 22.4223C26.3777 22.3741 26.2233 22.3563 26.07 22.37C25.8381 22.3553 25.6068 22.4056 25.4019 22.5151C25.197 22.6246 25.0266 22.7891 24.91 22.99V27.88H23.07V18.12H24.91V21.76Z" fill="white"/>
<path d="M41 22V26H37V22H41ZM43 20H35V28H43V20Z" fill="white"/>
</svg>
