<svg width="48" height="48" viewBox="0 0 48 48" fill="none" xmlns="http://www.w3.org/2000/svg">
<path d="M10.42 26C10.4201 25.8896 10.3892 25.7815 10.3309 25.6878C10.2725 25.5941 10.1891 25.5186 10.09 25.47C9.74833 25.2902 9.3805 25.1654 9 25.1C7.37 24.76 6.55 24.1 6.55 23.02C6.54685 22.7231 6.61408 22.4296 6.74618 22.1637C6.87828 21.8977 7.0715 21.6669 7.31 21.49C7.88436 21.0581 8.59239 20.8422 9.31 20.88C10.0606 20.8384 10.8024 21.0574 11.41 21.5C11.6583 21.6851 11.8586 21.9269 11.9943 22.2053C12.13 22.4836 12.1971 22.7904 12.19 23.1H10.35C10.3544 22.9789 10.3345 22.8581 10.2916 22.7448C10.2487 22.6314 10.1835 22.5278 10.1 22.44C9.99156 22.3479 9.86583 22.2783 9.73019 22.2354C9.59454 22.1925 9.45169 22.177 9.31 22.19C9.05281 22.1735 8.79799 22.2478 8.59 22.4C8.50914 22.462 8.44427 22.5425 8.40078 22.6347C8.3573 22.7269 8.33646 22.8281 8.34 22.93C8.33912 23.0291 8.36457 23.1268 8.41377 23.2128C8.46296 23.2989 8.53413 23.3704 8.62 23.42C8.93231 23.5857 9.27043 23.6973 9.62 23.75C10.0101 23.822 10.3945 23.9222 10.77 24.05C11.1852 24.1506 11.5547 24.3876 11.8193 24.723C12.084 25.0583 12.2286 25.4728 12.23 25.9C12.2337 26.201 12.1614 26.4981 12.0198 26.7638C11.8783 27.0295 11.6719 27.2552 11.42 27.42C10.8007 27.8344 10.0642 28.0378 9.32 28C8.7932 28.0128 8.27027 27.9069 7.79 27.69C7.38708 27.5052 7.04157 27.215 6.79 26.85C6.54052 26.515 6.40711 26.1077 6.41 25.69H8.09C8.09389 25.8343 8.12897 25.9761 8.19284 26.1055C8.25671 26.235 8.34785 26.3491 8.46 26.44C8.72264 26.6246 9.03941 26.7161 9.36 26.7C9.63778 26.7176 9.91408 26.6477 10.15 26.5C10.2316 26.4442 10.2987 26.3697 10.3457 26.2827C10.3926 26.1958 10.4181 26.0988 10.42 26ZM13.38 19.23C13.3755 19.1041 13.3972 18.9787 13.4437 18.8617C13.4901 18.7446 13.5604 18.6385 13.65 18.55C13.7498 18.456 13.8679 18.3835 13.9969 18.337C14.126 18.2906 14.2632 18.2712 14.4 18.28C14.5368 18.2712 14.674 18.2906 14.8031 18.337C14.9321 18.3835 15.0502 18.456 15.15 18.55C15.243 18.6364 15.3161 18.742 15.3644 18.8593C15.4128 18.9767 15.4351 19.1032 15.43 19.23C15.4353 19.3583 15.413 19.4863 15.3647 19.6053C15.3164 19.7243 15.2432 19.8316 15.15 19.92C14.9416 20.0978 14.6738 20.1907 14.4 20.18C14.1292 20.1911 13.8644 20.0981 13.66 19.92C13.5668 19.8316 13.4936 19.7243 13.4453 19.6053C13.397 19.4863 13.3747 19.3583 13.38 19.23ZM15.32 27.88H13.48V21H15.32V27.88ZM18.52 21L18.58 21.79C18.8163 21.4888 19.121 21.2483 19.4688 21.0883C19.8166 20.9283 20.1975 20.8535 20.58 20.87C20.8824 20.8461 21.1864 20.8912 21.4688 21.0021C21.7512 21.113 22.0046 21.2867 22.21 21.51C22.6072 22.0684 22.8013 22.746 22.76 23.43V27.87H20.89V23.47C20.9181 23.1651 20.8287 22.8611 20.64 22.62C20.4019 22.4249 20.0965 22.3315 19.79 22.36C19.5545 22.3515 19.3212 22.4088 19.1163 22.5253C18.9115 22.6419 18.7431 22.8132 18.63 23.02V27.87H16.8V21H18.52ZM25.91 21.76C26.1247 21.4801 26.4022 21.2547 26.7201 21.1018C27.038 20.9489 27.3873 20.873 27.74 20.88C29.23 20.88 29.99 21.75 30.01 23.48V27.88H28.17V23.53C28.1979 23.2159 28.1089 22.9025 27.92 22.65C27.8049 22.5479 27.6701 22.4704 27.5239 22.4223C27.3777 22.3741 27.2233 22.3563 27.07 22.37C26.8381 22.3553 26.6068 22.4056 26.4019 22.5151C26.197 22.6246 26.0266 22.7891 25.91 22.99V27.88H24.07V18.12H25.91V21.76Z" fill="white"/>
<path d="M39 22V26H35V22H39ZM41 20H33V28H41V20Z" fill="white"/>
</svg>
