<svg width="48" height="48" viewBox="0 0 48 48" fill="none" xmlns="http://www.w3.org/2000/svg">
<path d="M34.25 21.2501V20.1101H31.78L32.59 19.1101C32.9238 18.7966 33.2378 18.4626 33.53 18.1101C33.7043 17.8756 33.8488 17.6203 33.96 17.3501C34.0519 17.1176 34.0994 16.87 34.1 16.6201C34.1145 16.3638 34.0727 16.1076 33.9777 15.8692C33.8827 15.6308 33.7367 15.4161 33.55 15.2401C33.1093 14.8951 32.5589 14.7211 32 14.7501C31.6021 14.7428 31.2092 14.8393 30.86 15.0301C30.5269 15.2118 30.2501 15.4816 30.06 15.8101C29.8703 16.142 29.7703 16.5177 29.77 16.9001H31.2C31.1898 16.6436 31.2636 16.3908 31.41 16.1801C31.4692 16.091 31.5495 16.018 31.6437 15.9674C31.7379 15.9168 31.8431 15.8903 31.95 15.8901C32.0461 15.8861 32.1418 15.9038 32.2301 15.9418C32.3184 15.9799 32.397 16.0374 32.46 16.1101C32.589 16.2939 32.6525 16.5158 32.64 16.7401C32.5461 17.2692 32.2829 17.7535 31.89 18.1201L29.89 20.2801V21.2801L34.25 21.2501ZM25 21.0001V27.0001H19V21.0001H25ZM27 19.0001H17V29.0001H27V19.0001Z" fill="white"/>
</svg>
