<svg width="20" height="20" viewBox="0 0 20 20" fill="none" xmlns="http://www.w3.org/2000/svg">
<path fill-rule="evenodd" clip-rule="evenodd" d="M6.09002 15C6.07323 14.8112 6.09361 14.6209 6.15002 14.44L7.27002 11L4.43002 8.87998C4.28051 8.76943 4.15469 8.63001 4.06002 8.46998C4.01495 8.40135 3.98612 8.32335 3.97572 8.24191C3.96532 8.16046 3.97364 8.07772 4.00002 7.99998C4.04574 7.86016 4.14203 7.74247 4.27002 7.66998C4.43649 7.59582 4.61798 7.56158 4.80002 7.56997H8.27002L9.36002 4.15997C9.40652 3.9783 9.49565 3.81033 9.62002 3.66998C9.66786 3.61654 9.72643 3.57379 9.79191 3.54452C9.85739 3.51525 9.9283 3.50012 10 3.50012C10.0717 3.50012 10.1427 3.51525 10.2081 3.54452C10.2736 3.57379 10.3322 3.61654 10.38 3.66998C10.5044 3.81033 10.5935 3.9783 10.64 4.15997L11.7 7.62998H15.18C15.3588 7.62241 15.5368 7.65665 15.7 7.72997C15.8269 7.78464 15.9323 7.87951 16 7.99998C16.0295 8.06783 16.0447 8.14101 16.0447 8.21498C16.0447 8.28894 16.0295 8.36212 16 8.42998C15.9115 8.59444 15.7846 8.73509 15.63 8.83998L12.74 11L13.85 14.45C13.9165 14.6287 13.9372 14.8212 13.91 15.01C13.8914 15.1561 13.816 15.2891 13.7 15.38C13.6435 15.4261 13.5773 15.4591 13.5063 15.4764C13.4354 15.4937 13.3615 15.4949 13.29 15.48C13.114 15.4372 12.9499 15.3552 12.81 15.24L10 13.09L7.19002 15.25C7.05019 15.3652 6.88609 15.4472 6.71002 15.49C6.63853 15.5042 6.56478 15.5026 6.49396 15.4854C6.42313 15.4681 6.35694 15.4355 6.30002 15.39C6.18719 15.288 6.11301 15.1503 6.09002 15Z" fill="white"/>
</svg>
