<svg width="48" height="48" viewBox="0 0 48 48" fill="none" xmlns="http://www.w3.org/2000/svg">
<path d="M12.9 19.3199V20.9999H14.08V22.3399H12.9V25.7699C12.8826 25.9653 12.9358 26.1605 13.05 26.3199C13.1271 26.3841 13.2167 26.4315 13.3131 26.4591C13.4095 26.4866 13.5107 26.4938 13.61 26.4799C13.7863 26.4968 13.9637 26.4968 14.14 26.4799V27.8699C13.7691 27.9726 13.3845 28.0165 13 27.9999C12.7324 28.0408 12.4589 28.0189 12.2011 27.9362C11.9433 27.8534 11.7083 27.712 11.5144 27.523C11.3206 27.334 11.1732 27.1026 11.084 26.847C10.9947 26.5914 10.966 26.3185 11 26.0499V22.3499H10V20.9999H11V19.3199H12.9ZM19.08 27.8799C18.9843 27.6846 18.9202 27.4753 18.89 27.2599C18.6734 27.5025 18.4062 27.6944 18.1073 27.8223C17.8083 27.9502 17.485 28.0108 17.16 27.9999C16.5503 28.0231 15.9541 27.8161 15.49 27.4199C15.2815 27.2464 15.1136 27.0294 14.9978 26.7841C14.8821 26.5388 14.8214 26.2712 14.82 25.9999C14.8084 25.6752 14.876 25.3525 15.0172 25.0597C15.1583 24.767 15.3687 24.5131 15.63 24.3199C16.3334 23.8635 17.1624 23.6396 18 23.6799H18.85V23.2899C18.8656 23.0111 18.7764 22.7365 18.6 22.5199C18.4987 22.4216 18.3777 22.3457 18.245 22.2975C18.1123 22.2492 17.9708 22.2296 17.83 22.2399C17.5682 22.2239 17.3093 22.3019 17.1 22.4599C17.014 22.5358 16.946 22.63 16.901 22.7355C16.856 22.8411 16.8352 22.9553 16.84 23.0699H15C14.9978 22.674 15.1242 22.288 15.36 21.9699C15.6306 21.6126 15.9937 21.336 16.41 21.1699C16.8883 20.9714 17.4022 20.8727 17.92 20.8799C18.642 20.8454 19.3522 21.0726 19.92 21.5199C20.173 21.7416 20.372 22.018 20.502 22.3282C20.632 22.6384 20.6894 22.9742 20.67 23.3099V26.3099C20.6423 26.8177 20.7348 27.3247 20.94 27.7899V27.8999L19.08 27.8799ZM17.56 26.5999C17.8209 26.602 18.0784 26.5402 18.31 26.4199C18.5273 26.3142 18.7057 26.1428 18.82 25.9299V24.7499H18.13C17.21 24.7499 16.72 25.0699 16.67 25.6999V25.8099C16.6672 25.9166 16.6871 26.0225 16.7285 26.1208C16.7699 26.2191 16.8318 26.3075 16.91 26.3799C17.0939 26.5277 17.3242 26.6056 17.56 26.5999ZM23.75 20.9999L23.81 21.7899C24.0463 21.4888 24.351 21.2482 24.6988 21.0882C25.0466 20.9282 25.4275 20.8534 25.81 20.8699C26.1108 20.8476 26.4128 20.8935 26.6933 21.0043C26.9739 21.1152 27.2257 21.288 27.43 21.5099C27.8365 22.0685 28.0379 22.7502 28 23.4399V27.8799H26.12V23.4799C26.1481 23.1751 26.0587 22.871 25.87 22.6299C25.6319 22.4348 25.3265 22.3414 25.02 22.3699C24.7844 22.3615 24.5512 22.4187 24.3463 22.5353C24.1414 22.6519 23.9731 22.8231 23.86 23.0299V27.8799H22V20.9999H23.75Z" fill="white"/>
<path d="M37 22V26H33V22H37ZM39 20H31V28H39V20Z" fill="white"/>
</svg>
