<svg width="48" height="48" viewBox="0 0 48 48" fill="none" xmlns="http://www.w3.org/2000/svg">
<path d="M27 19H25V18H27V19ZM29.87 20.43H28.73V16.84L27.37 17.28V16.28L29.74 15.39H29.87V20.43ZM10.9 19.32V21H12.08V22.34H10.9V25.77C10.8826 25.9654 10.9358 26.1605 11.05 26.32C11.1271 26.3842 11.2167 26.4316 11.3131 26.4592C11.4095 26.4867 11.5107 26.4938 11.61 26.48C11.7863 26.4968 11.9637 26.4968 12.14 26.48V27.87C11.7691 27.9727 11.3845 28.0166 11 28C10.7324 28.0408 10.4589 28.019 10.2011 27.9362C9.94334 27.8535 9.70829 27.712 9.51444 27.523C9.32059 27.334 9.17324 27.1026 9.08397 26.847C8.99471 26.5914 8.96596 26.3186 9 26.05V22.35H8V21H9V19.32H10.9ZM17.08 27.88C16.9843 27.6847 16.9202 27.4754 16.89 27.26C16.6734 27.5025 16.4062 27.6945 16.1073 27.8224C15.8083 27.9502 15.485 28.0109 15.16 28C14.5503 28.0232 13.9541 27.8162 13.49 27.42C13.2815 27.2465 13.1136 27.0295 12.9978 26.7842C12.8821 26.5389 12.8214 26.2712 12.82 26C12.8084 25.6752 12.876 25.3525 13.0172 25.0598C13.1583 24.7671 13.3687 24.5132 13.63 24.32C14.3334 23.8635 15.1624 23.6397 16 23.68H16.85V23.29C16.8656 23.0112 16.7764 22.7365 16.6 22.52C16.4987 22.4216 16.3777 22.3458 16.245 22.2975C16.1123 22.2493 15.9708 22.2297 15.83 22.24C15.5682 22.224 15.3093 22.302 15.1 22.46C15.014 22.5359 14.946 22.6301 14.901 22.7356C14.856 22.8411 14.8352 22.9554 14.84 23.07H13C12.9978 22.6741 13.1242 22.2881 13.36 21.97C13.6306 21.6127 13.9937 21.336 14.41 21.17C14.8883 20.9715 15.4022 20.8728 15.92 20.88C16.642 20.8454 17.3522 21.0727 17.92 21.52C18.173 21.7416 18.372 22.0181 18.502 22.3283C18.632 22.6385 18.6894 22.9742 18.67 23.31V26.31C18.6423 26.8177 18.7348 27.3248 18.94 27.79V27.9L17.08 27.88ZM15.56 26.6C15.8209 26.6021 16.0784 26.5403 16.31 26.42C16.5273 26.3143 16.7057 26.1429 16.82 25.93V24.75H16.13C15.21 24.75 14.72 25.07 14.67 25.7V25.81C14.6672 25.9166 14.6871 26.0226 14.7285 26.1209C14.7699 26.2192 14.8318 26.3075 14.91 26.38C15.0939 26.5277 15.3242 26.6056 15.56 26.6ZM21.75 21L21.81 21.79C22.0463 21.4888 22.351 21.2483 22.6988 21.0883C23.0466 20.9283 23.4275 20.8535 23.81 20.87C24.1108 20.8476 24.4128 20.8936 24.6933 21.0044C24.9739 21.1152 25.2257 21.2881 25.43 21.51C25.8365 22.0685 26.0379 22.7502 26 23.44V27.88H24.12V23.48C24.1481 23.1752 24.0587 22.8711 23.87 22.63C23.6319 22.4349 23.3265 22.3415 23.02 22.37C22.7844 22.3615 22.5512 22.4188 22.3463 22.5354C22.1414 22.6519 21.9731 22.8232 21.86 23.03V27.88H20V21H21.75Z" fill="white"/>
<path d="M38 22V26H34V22H38ZM40 20H32V28H40V20Z" fill="white"/>
</svg>
