<svg width="48" height="48" viewBox="0 0 48 48" fill="none" xmlns="http://www.w3.org/2000/svg">
<path d="M8.9 19.32V21H10.08V22.34H8.9V25.77C8.88261 25.9654 8.93583 26.1605 9.05 26.32C9.12705 26.3842 9.21667 26.4316 9.3131 26.4591C9.40953 26.4867 9.51066 26.4938 9.61 26.48C9.78627 26.4968 9.96373 26.4968 10.14 26.48V27.87C9.76913 27.9727 9.38446 28.0165 9 28C8.73236 28.0408 8.45889 28.019 8.20112 27.9362C7.94334 27.8535 7.70829 27.712 7.51444 27.523C7.32059 27.334 7.17324 27.1026 7.08397 26.847C6.99471 26.5914 6.96596 26.3186 7 26.05V22.35H6V21H7V19.32H8.9ZM15.08 27.88C14.9843 27.6847 14.9202 27.4754 14.89 27.26C14.6734 27.5025 14.4062 27.6945 14.1073 27.8223C13.8083 27.9502 13.485 28.0109 13.16 28C12.5503 28.0232 11.9541 27.8161 11.49 27.42C11.2815 27.2465 11.1136 27.0295 10.9978 26.7842C10.8821 26.5389 10.8214 26.2712 10.82 26C10.8084 25.6752 10.876 25.3525 11.0172 25.0598C11.1583 24.7671 11.3687 24.5131 11.63 24.32C12.3334 23.8635 13.1624 23.6396 14 23.68H14.85V23.29C14.8656 23.0111 14.7764 22.7365 14.6 22.52C14.4987 22.4216 14.3777 22.3458 14.245 22.2975C14.1123 22.2493 13.9708 22.2296 13.83 22.24C13.5682 22.224 13.3093 22.302 13.1 22.46C13.014 22.5359 12.946 22.63 12.901 22.7356C12.856 22.8411 12.8352 22.9554 12.84 23.07H11C10.9978 22.674 11.1242 22.2881 11.36 21.97C11.6306 21.6126 11.9937 21.336 12.41 21.17C12.8883 20.9714 13.4022 20.8728 13.92 20.88C14.642 20.8454 15.3522 21.0727 15.92 21.52C16.173 21.7416 16.372 22.0181 16.502 22.3283C16.632 22.6385 16.6894 22.9742 16.67 23.31V26.31C16.6423 26.8177 16.7348 27.3248 16.94 27.79V27.9L15.08 27.88ZM13.56 26.6C13.8209 26.6021 14.0784 26.5403 14.31 26.42C14.5273 26.3143 14.7057 26.1428 14.82 25.93V24.75H14.13C13.21 24.75 12.72 25.07 12.67 25.7V25.81C12.6672 25.9166 12.6871 26.0226 12.7285 26.1209C12.7699 26.2192 12.8318 26.3075 12.91 26.38C13.0939 26.5277 13.3242 26.6056 13.56 26.6ZM19.75 21L19.81 21.79C20.0463 21.4888 20.351 21.2483 20.6988 21.0883C21.0466 20.9283 21.4275 20.8535 21.81 20.87C22.1108 20.8476 22.4128 20.8935 22.6933 21.0044C22.9739 21.1152 23.2257 21.2881 23.43 21.51C23.8365 22.0685 24.0379 22.7502 24 23.44V27.88H22.12V23.48C22.1481 23.1751 22.0587 22.8711 21.87 22.63C21.6319 22.4349 21.3265 22.3415 21.02 22.37C20.7844 22.3615 20.5512 22.4188 20.3463 22.5353C20.1414 22.6519 19.9731 22.8232 19.86 23.03V27.88H18V21H19.75ZM27.14 21.76C27.3588 21.4772 27.6413 21.2501 27.9646 21.0971C28.2878 20.9442 28.6426 20.8698 29 20.88C30.49 20.88 31.25 21.75 31.27 23.48V27.88H29.4V23.53C29.4279 23.2159 29.3389 22.9025 29.15 22.65C29.0349 22.5479 28.9001 22.4704 28.7539 22.4223C28.6077 22.3741 28.4533 22.3563 28.3 22.37C28.0681 22.3553 27.8368 22.4056 27.6319 22.5151C27.427 22.6246 27.2566 22.7891 27.14 22.99V27.88H25.3V18.12H27.14V21.76Z" fill="white"/>
<path d="M40 22V26H36V22H40ZM42 20H34V28H42V20Z" fill="white"/>
</svg>
