<svg width="48" height="48" viewBox="0 0 48 48" fill="none" xmlns="http://www.w3.org/2000/svg">
<path d="M31 19H29V18H31V19ZM33.87 20.43H32.73V16.84L31.37 17.28V16.28L33.74 15.39H33.87V20.43ZM7.9 19.32V21H9.08V22.34H7.9V25.77C7.88261 25.9654 7.93583 26.1605 8.05 26.32C8.12705 26.3842 8.21667 26.4316 8.3131 26.4592C8.40953 26.4867 8.51066 26.4938 8.61 26.48C8.78627 26.4968 8.96373 26.4968 9.14 26.48V27.87C8.76913 27.9727 8.38446 28.0166 8 28C7.73236 28.0408 7.45889 28.019 7.20112 27.9362C6.94334 27.8535 6.70829 27.712 6.51444 27.523C6.32059 27.334 6.17324 27.1026 6.08397 26.847C5.99471 26.5914 5.96596 26.3186 6 26.05V22.35H5V21H6V19.32H7.9ZM14.08 27.88C13.9843 27.6847 13.9202 27.4754 13.89 27.26C13.6734 27.5025 13.4062 27.6945 13.1073 27.8224C12.8083 27.9502 12.485 28.0109 12.16 28C11.5503 28.0232 10.9541 27.8162 10.49 27.42C10.2815 27.2465 10.1136 27.0295 9.99782 26.7842C9.88208 26.5389 9.82139 26.2712 9.82 26C9.80837 25.6752 9.87604 25.3525 10.0172 25.0598C10.1583 24.7671 10.3687 24.5132 10.63 24.32C11.3334 23.8635 12.1624 23.6397 13 23.68H13.85V23.29C13.8656 23.0112 13.7764 22.7365 13.6 22.52C13.4987 22.4216 13.3777 22.3458 13.245 22.2975C13.1123 22.2493 12.9708 22.2297 12.83 22.24C12.5682 22.224 12.3093 22.302 12.1 22.46C12.014 22.5359 11.946 22.6301 11.901 22.7356C11.856 22.8411 11.8352 22.9554 11.84 23.07H10C9.99783 22.6741 10.1242 22.2881 10.36 21.97C10.6306 21.6127 10.9937 21.336 11.41 21.17C11.8883 20.9715 12.4022 20.8728 12.92 20.88C13.642 20.8454 14.3522 21.0727 14.92 21.52C15.173 21.7416 15.372 22.0181 15.502 22.3283C15.632 22.6385 15.6894 22.9742 15.67 23.31V26.31C15.6423 26.8177 15.7348 27.3248 15.94 27.79V27.9L14.08 27.88ZM12.56 26.6C12.8209 26.6021 13.0784 26.5403 13.31 26.42C13.5273 26.3143 13.7057 26.1429 13.82 25.93V24.75H13.13C12.21 24.75 11.72 25.07 11.67 25.7V25.81C11.6672 25.9166 11.6871 26.0226 11.7285 26.1209C11.7699 26.2192 11.8318 26.3075 11.91 26.38C12.0939 26.5277 12.3242 26.6056 12.56 26.6ZM18.75 21L18.81 21.79C19.0463 21.4888 19.351 21.2483 19.6988 21.0883C20.0466 20.9283 20.4275 20.8535 20.81 20.87C21.1108 20.8476 21.4128 20.8936 21.6933 21.0044C21.9739 21.1152 22.2257 21.2881 22.43 21.51C22.8365 22.0685 23.0379 22.7502 23 23.44V27.88H21.12V23.48C21.1481 23.1752 21.0587 22.8711 20.87 22.63C20.6319 22.4349 20.3265 22.3415 20.02 22.37C19.7844 22.3615 19.5512 22.4188 19.3463 22.5354C19.1414 22.6519 18.9731 22.8232 18.86 23.03V27.88H17V21H18.75ZM26.14 21.76C26.3588 21.4772 26.6413 21.2501 26.9646 21.0972C27.2878 20.9442 27.6426 20.8698 28 20.88C29.49 20.88 30.25 21.75 30.27 23.48V27.88H28.4V23.53C28.4279 23.2159 28.3389 22.9025 28.15 22.65C28.0349 22.5479 27.9001 22.4704 27.7539 22.4223C27.6077 22.3741 27.4533 22.3563 27.3 22.37C27.0681 22.3553 26.8368 22.4056 26.6319 22.5151C26.427 22.6246 26.2566 22.7891 26.14 22.99V27.88H24.3V18.12H26.14V21.76Z" fill="white"/>
<path d="M41 22V26H37V22H41ZM43 20H35V28H43V20Z" fill="white"/>
</svg>
